%TF.GenerationSoftware,KiCad,Pcbnew,9.0.1*%
%TF.CreationDate,2025-07-17T13:04:37-04:00*%
%TF.ProjectId,hermes,6865726d-6573-42e6-9b69-6361645f7063,rev?*%
%TF.SameCoordinates,Original*%
%TF.FileFunction,Copper,L2,Bot*%
%TF.FilePolarity,Positive*%
%FSLAX46Y46*%
G04 Gerber Fmt 4.6, Leading zero omitted, Abs format (unit mm)*
G04 Created by KiCad (PCBNEW 9.0.1) date 2025-07-17 13:04:37*
%MOMM*%
%LPD*%
G01*
G04 APERTURE LIST*
%TA.AperFunction,ComponentPad*%
%ADD10C,1.400000*%
%TD*%
%TA.AperFunction,ComponentPad*%
%ADD11O,1.400000X1.400000*%
%TD*%
%TA.AperFunction,ComponentPad*%
%ADD12O,1.600000X2.000000*%
%TD*%
%TA.AperFunction,ComponentPad*%
%ADD13C,1.524000*%
%TD*%
%TA.AperFunction,ViaPad*%
%ADD14C,0.600000*%
%TD*%
%TA.AperFunction,Conductor*%
%ADD15C,0.200000*%
%TD*%
G04 APERTURE END LIST*
D10*
%TO.P,R1,1*%
%TO.N,SDA*%
X121650000Y-98370000D03*
D11*
%TO.P,R1,2*%
%TO.N,Net-(U2-GPIO6{slash}SDA)*%
X121650000Y-103450000D03*
%TD*%
D12*
%TO.P,DS1,1,VDD*%
%TO.N,3V3*%
X110300000Y-77400000D03*
%TO.P,DS1,2,GND*%
%TO.N,GND*%
X112840000Y-77400000D03*
%TO.P,DS1,3,SCK*%
%TO.N,SCL*%
X115380000Y-77400000D03*
%TO.P,DS1,4,SDA*%
%TO.N,SDA*%
X117920000Y-77400000D03*
%TD*%
D10*
%TO.P,R2,1*%
%TO.N,SCL*%
X113810000Y-100950000D03*
D11*
%TO.P,R2,2*%
%TO.N,Net-(U2-GPIO7{slash}SCL)*%
X118890000Y-100950000D03*
%TD*%
D13*
%TO.P,U2,1,GPIO26/ADC0/A0*%
%TO.N,unconnected-(U2-GPIO26{slash}ADC0{slash}A0-Pad1)*%
X126851500Y-107180000D03*
%TO.P,U2,2,GPIO27/ADC1/A1*%
%TO.N,unconnected-(U2-GPIO27{slash}ADC1{slash}A1-Pad2)*%
X124311500Y-107180000D03*
%TO.P,U2,3,GPIO28/ADC2/A2*%
%TO.N,unconnected-(U2-GPIO28{slash}ADC2{slash}A2-Pad3)*%
X121771500Y-107180000D03*
%TO.P,U2,4,GPIO29/ADC3/A3*%
%TO.N,unconnected-(U2-GPIO29{slash}ADC3{slash}A3-Pad4)*%
X119231500Y-107180000D03*
%TO.P,U2,5,GPIO6/SDA*%
%TO.N,Net-(U2-GPIO6{slash}SDA)*%
X116691500Y-107180000D03*
%TO.P,U2,6,GPIO7/SCL*%
%TO.N,Net-(U2-GPIO7{slash}SCL)*%
X114151500Y-107180000D03*
%TO.P,U2,7,GPIO0/TX*%
%TO.N,ACCELINT*%
X111611500Y-107180000D03*
%TO.P,U2,8,GPIO1/RX*%
%TO.N,unconnected-(U2-GPIO1{slash}RX-Pad8)*%
X111611500Y-122420000D03*
%TO.P,U2,9,GPIO2/SCK*%
%TO.N,unconnected-(U2-GPIO2{slash}SCK-Pad9)*%
X114151500Y-122420000D03*
%TO.P,U2,10,GPIO4/MISO*%
%TO.N,unconnected-(U2-GPIO4{slash}MISO-Pad10)*%
X116691500Y-122420000D03*
%TO.P,U2,11,GPIO3/MOSI*%
%TO.N,unconnected-(U2-GPIO3{slash}MOSI-Pad11)*%
X119231500Y-122420000D03*
%TO.P,U2,12,3V3*%
%TO.N,3V3*%
X121771500Y-122420000D03*
%TO.P,U2,13,GND*%
%TO.N,GND*%
X124311500Y-122420000D03*
%TO.P,U2,14,VBUS*%
%TO.N,unconnected-(U2-VBUS-Pad14)*%
X126851500Y-122420000D03*
%TD*%
D14*
%TO.N,3V3*%
X98950735Y-122099265D03*
X100174265Y-121625735D03*
%TO.N,SDA*%
X106870000Y-119850000D03*
%TO.N,SCL*%
X106870000Y-121750000D03*
X108600000Y-119500000D03*
%TO.N,ACCELINT*%
X99700000Y-123400000D03*
X107300000Y-115100000D03*
%TD*%
D15*
%TO.N,3V3*%
X98950735Y-122099265D02*
X99700735Y-122099265D01*
X99700735Y-122099265D02*
X100174265Y-121625735D01*
%TO.N,SDA*%
X117950000Y-107950000D02*
X106900000Y-119000000D01*
X106900000Y-119820000D02*
X106870000Y-119850000D01*
X120649000Y-103601000D02*
X117950000Y-106300000D01*
X120649000Y-99371000D02*
X120649000Y-103601000D01*
X117950000Y-106300000D02*
X117950000Y-107950000D01*
X121650000Y-98370000D02*
X120649000Y-99371000D01*
X106900000Y-119000000D02*
X106900000Y-119820000D01*
%TO.N,SCL*%
X108600000Y-119500000D02*
X106870000Y-121230000D01*
X106870000Y-121230000D02*
X106870000Y-121750000D01*
%TO.N,ACCELINT*%
X107300000Y-115800000D02*
X99700000Y-123400000D01*
X107300000Y-115100000D02*
X107300000Y-115800000D01*
%TD*%
M02*
