%TF.GenerationSoftware,KiCad,Pcbnew,9.0.1*%
%TF.CreationDate,2025-07-17T13:04:37-04:00*%
%TF.ProjectId,hermes,6865726d-6573-42e6-9b69-6361645f7063,rev?*%
%TF.SameCoordinates,Original*%
%TF.FileFunction,Legend,Top*%
%TF.FilePolarity,Positive*%
%FSLAX46Y46*%
G04 Gerber Fmt 4.6, Leading zero omitted, Abs format (unit mm)*
G04 Created by KiCad (PCBNEW 9.0.1) date 2025-07-17 13:04:37*
%MOMM*%
%LPD*%
G01*
G04 APERTURE LIST*
%ADD10C,0.200000*%
%ADD11C,0.075000*%
%ADD12C,0.150000*%
%ADD13C,0.101600*%
%ADD14C,0.000000*%
%ADD15C,0.120000*%
%ADD16C,0.127000*%
%ADD17C,0.100000*%
G04 APERTURE END LIST*
D10*
G36*
X100872435Y-113744000D02*
G01*
X100872435Y-112949917D01*
X101022205Y-112949917D01*
X101022205Y-113744000D01*
X100872435Y-113744000D01*
G37*
G36*
X100437438Y-113744000D02*
G01*
X100437438Y-112949917D01*
X100587159Y-112949917D01*
X100587159Y-113744000D01*
X100437438Y-113744000D01*
G37*
G36*
X100506852Y-113421990D02*
G01*
X100506852Y-113277398D01*
X100969741Y-113277398D01*
X100969741Y-113421990D01*
X100506852Y-113421990D01*
G37*
G36*
X101197131Y-113744000D02*
G01*
X101197131Y-112949917D01*
X101346852Y-112949917D01*
X101346852Y-113744000D01*
X101197131Y-113744000D01*
G37*
G36*
X101251256Y-113744000D02*
G01*
X101251256Y-113599408D01*
X101729434Y-113599408D01*
X101729434Y-113744000D01*
X101251256Y-113744000D01*
G37*
G36*
X101251256Y-113421990D02*
G01*
X101251256Y-113277398D01*
X101669302Y-113277398D01*
X101669302Y-113421990D01*
X101251256Y-113421990D01*
G37*
G36*
X101251256Y-113094509D02*
G01*
X101251256Y-112949917D01*
X101729434Y-112949917D01*
X101729434Y-113094509D01*
X101251256Y-113094509D01*
G37*
G36*
X101925708Y-113425116D02*
G01*
X101925708Y-113280524D01*
X102202240Y-113280524D01*
X102224353Y-113277588D01*
X102242725Y-113269144D01*
X102258269Y-113254976D01*
X102273864Y-113226324D01*
X102279860Y-113187517D01*
X102277306Y-113160337D01*
X102270165Y-113138214D01*
X102258806Y-113120106D01*
X102243274Y-113105944D01*
X102224737Y-113097467D01*
X102202240Y-113094509D01*
X101925708Y-113094509D01*
X101925708Y-112949917D01*
X102214256Y-112949917D01*
X102257533Y-112953367D01*
X102295767Y-112963299D01*
X102329832Y-112979422D01*
X102360241Y-113001659D01*
X102385726Y-113029144D01*
X102406622Y-113062464D01*
X102421488Y-113099059D01*
X102430745Y-113140451D01*
X102433977Y-113187517D01*
X102430718Y-113234570D01*
X102421382Y-113275978D01*
X102406378Y-113312618D01*
X102385330Y-113345937D01*
X102359838Y-113373406D01*
X102329588Y-113395612D01*
X102295678Y-113411726D01*
X102257531Y-113421662D01*
X102214256Y-113425116D01*
X101925708Y-113425116D01*
G37*
G36*
X101866161Y-113744000D02*
G01*
X101866161Y-112949917D01*
X102015882Y-112949917D01*
X102015882Y-113744000D01*
X101866161Y-113744000D01*
G37*
G36*
X102285868Y-113744000D02*
G01*
X102092965Y-113400448D01*
X102253091Y-113375290D01*
X102467292Y-113744000D01*
X102285868Y-113744000D01*
G37*
G36*
X102944836Y-113485151D02*
G01*
X103096217Y-112949917D01*
X103293468Y-112949917D01*
X103293468Y-113744000D01*
X103157424Y-113744000D01*
X103157424Y-113127433D01*
X103162847Y-113162360D01*
X103010928Y-113655535D01*
X102878695Y-113655535D01*
X102726775Y-113173302D01*
X102732247Y-113127433D01*
X102732247Y-113744000D01*
X102596154Y-113744000D01*
X102596154Y-112949917D01*
X102793454Y-112949917D01*
X102944836Y-113485151D01*
G37*
G36*
X103468394Y-113744000D02*
G01*
X103468394Y-112949917D01*
X103618115Y-112949917D01*
X103618115Y-113744000D01*
X103468394Y-113744000D01*
G37*
G36*
X103522519Y-113744000D02*
G01*
X103522519Y-113599408D01*
X104000697Y-113599408D01*
X104000697Y-113744000D01*
X103522519Y-113744000D01*
G37*
G36*
X103522519Y-113421990D02*
G01*
X103522519Y-113277398D01*
X103940565Y-113277398D01*
X103940565Y-113421990D01*
X103522519Y-113421990D01*
G37*
G36*
X103522519Y-113094509D02*
G01*
X103522519Y-112949917D01*
X104000697Y-112949917D01*
X104000697Y-113094509D01*
X103522519Y-113094509D01*
G37*
G36*
X104387187Y-113752597D02*
G01*
X104330797Y-113749711D01*
X104275959Y-113741117D01*
X104222935Y-113726859D01*
X104174012Y-113707510D01*
X104128487Y-113682926D01*
X104088234Y-113654216D01*
X104157648Y-113530629D01*
X104206685Y-113563894D01*
X104263649Y-113589003D01*
X104324617Y-113604430D01*
X104387187Y-113609568D01*
X104435621Y-113606345D01*
X104472729Y-113597674D01*
X104500858Y-113584655D01*
X104523649Y-113565381D01*
X104536791Y-113542354D01*
X104541304Y-113514265D01*
X104541304Y-113513678D01*
X104535933Y-113482464D01*
X104521081Y-113460922D01*
X104498408Y-113445387D01*
X104467787Y-113433860D01*
X104395931Y-113419108D01*
X104301898Y-113401376D01*
X104255989Y-113387441D01*
X104214459Y-113367475D01*
X104178765Y-113339533D01*
X104150272Y-113301041D01*
X104137446Y-113271233D01*
X104129028Y-113233411D01*
X104125945Y-113185709D01*
X104125945Y-113185123D01*
X104131149Y-113127969D01*
X104145873Y-113080002D01*
X104169510Y-113039430D01*
X104202442Y-113005018D01*
X104241986Y-112978561D01*
X104290040Y-112958694D01*
X104348312Y-112945914D01*
X104418890Y-112941320D01*
X104483247Y-112946609D01*
X104550000Y-112962911D01*
X104614376Y-112989091D01*
X104674075Y-113024411D01*
X104610669Y-113151222D01*
X104563421Y-113122481D01*
X104514780Y-113101641D01*
X104464944Y-113088519D01*
X104418890Y-113084348D01*
X104373276Y-113087307D01*
X104338500Y-113095245D01*
X104312302Y-113107112D01*
X104290971Y-113124736D01*
X104278762Y-113145614D01*
X104274591Y-113170908D01*
X104274591Y-113171494D01*
X104277336Y-113196012D01*
X104284906Y-113214878D01*
X104296964Y-113229429D01*
X104321968Y-113246171D01*
X104355436Y-113258689D01*
X104433056Y-113276421D01*
X104524305Y-113298012D01*
X104568032Y-113313786D01*
X104607397Y-113334942D01*
X104641045Y-113363230D01*
X104667529Y-113401083D01*
X104679406Y-113430002D01*
X104687140Y-113465936D01*
X104689951Y-113510406D01*
X104689951Y-113511529D01*
X104684617Y-113567603D01*
X104669470Y-113614881D01*
X104645009Y-113655118D01*
X104610669Y-113689484D01*
X104569916Y-113715623D01*
X104520321Y-113735324D01*
X104460122Y-113748026D01*
X104387187Y-113752597D01*
G37*
D11*
X125720770Y-127159385D02*
X125720770Y-126959385D01*
X125720770Y-126987957D02*
X125735056Y-126973671D01*
X125735056Y-126973671D02*
X125763627Y-126959385D01*
X125763627Y-126959385D02*
X125806484Y-126959385D01*
X125806484Y-126959385D02*
X125835056Y-126973671D01*
X125835056Y-126973671D02*
X125849342Y-127002242D01*
X125849342Y-127002242D02*
X125849342Y-127159385D01*
X125849342Y-127002242D02*
X125863627Y-126973671D01*
X125863627Y-126973671D02*
X125892199Y-126959385D01*
X125892199Y-126959385D02*
X125935056Y-126959385D01*
X125935056Y-126959385D02*
X125963627Y-126973671D01*
X125963627Y-126973671D02*
X125977913Y-127002242D01*
X125977913Y-127002242D02*
X125977913Y-127159385D01*
X126235056Y-127145100D02*
X126206484Y-127159385D01*
X126206484Y-127159385D02*
X126149342Y-127159385D01*
X126149342Y-127159385D02*
X126120770Y-127145100D01*
X126120770Y-127145100D02*
X126106484Y-127116528D01*
X126106484Y-127116528D02*
X126106484Y-127002242D01*
X126106484Y-127002242D02*
X126120770Y-126973671D01*
X126120770Y-126973671D02*
X126149342Y-126959385D01*
X126149342Y-126959385D02*
X126206484Y-126959385D01*
X126206484Y-126959385D02*
X126235056Y-126973671D01*
X126235056Y-126973671D02*
X126249342Y-127002242D01*
X126249342Y-127002242D02*
X126249342Y-127030814D01*
X126249342Y-127030814D02*
X126106484Y-127059385D01*
X126506485Y-126959385D02*
X126506485Y-127202242D01*
X126506485Y-127202242D02*
X126492199Y-127230814D01*
X126492199Y-127230814D02*
X126477913Y-127245100D01*
X126477913Y-127245100D02*
X126449342Y-127259385D01*
X126449342Y-127259385D02*
X126406485Y-127259385D01*
X126406485Y-127259385D02*
X126377913Y-127245100D01*
X126506485Y-127145100D02*
X126477913Y-127159385D01*
X126477913Y-127159385D02*
X126420770Y-127159385D01*
X126420770Y-127159385D02*
X126392199Y-127145100D01*
X126392199Y-127145100D02*
X126377913Y-127130814D01*
X126377913Y-127130814D02*
X126363627Y-127102242D01*
X126363627Y-127102242D02*
X126363627Y-127016528D01*
X126363627Y-127016528D02*
X126377913Y-126987957D01*
X126377913Y-126987957D02*
X126392199Y-126973671D01*
X126392199Y-126973671D02*
X126420770Y-126959385D01*
X126420770Y-126959385D02*
X126477913Y-126959385D01*
X126477913Y-126959385D02*
X126506485Y-126973671D01*
X126649342Y-127159385D02*
X126649342Y-126859385D01*
X126777914Y-127159385D02*
X126777914Y-127002242D01*
X126777914Y-127002242D02*
X126763628Y-126973671D01*
X126763628Y-126973671D02*
X126735056Y-126959385D01*
X126735056Y-126959385D02*
X126692199Y-126959385D01*
X126692199Y-126959385D02*
X126663628Y-126973671D01*
X126663628Y-126973671D02*
X126649342Y-126987957D01*
X127049343Y-127159385D02*
X127049343Y-127002242D01*
X127049343Y-127002242D02*
X127035057Y-126973671D01*
X127035057Y-126973671D02*
X127006485Y-126959385D01*
X127006485Y-126959385D02*
X126949343Y-126959385D01*
X126949343Y-126959385D02*
X126920771Y-126973671D01*
X127049343Y-127145100D02*
X127020771Y-127159385D01*
X127020771Y-127159385D02*
X126949343Y-127159385D01*
X126949343Y-127159385D02*
X126920771Y-127145100D01*
X126920771Y-127145100D02*
X126906485Y-127116528D01*
X126906485Y-127116528D02*
X126906485Y-127087957D01*
X126906485Y-127087957D02*
X126920771Y-127059385D01*
X126920771Y-127059385D02*
X126949343Y-127045100D01*
X126949343Y-127045100D02*
X127020771Y-127045100D01*
X127020771Y-127045100D02*
X127049343Y-127030814D01*
X127192200Y-126959385D02*
X127192200Y-127159385D01*
X127192200Y-126987957D02*
X127206486Y-126973671D01*
X127206486Y-126973671D02*
X127235057Y-126959385D01*
X127235057Y-126959385D02*
X127277914Y-126959385D01*
X127277914Y-126959385D02*
X127306486Y-126973671D01*
X127306486Y-126973671D02*
X127320772Y-127002242D01*
X127320772Y-127002242D02*
X127320772Y-127159385D01*
X127592201Y-127159385D02*
X127592201Y-127002242D01*
X127592201Y-127002242D02*
X127577915Y-126973671D01*
X127577915Y-126973671D02*
X127549343Y-126959385D01*
X127549343Y-126959385D02*
X127492201Y-126959385D01*
X127492201Y-126959385D02*
X127463629Y-126973671D01*
X127592201Y-127145100D02*
X127563629Y-127159385D01*
X127563629Y-127159385D02*
X127492201Y-127159385D01*
X127492201Y-127159385D02*
X127463629Y-127145100D01*
X127463629Y-127145100D02*
X127449343Y-127116528D01*
X127449343Y-127116528D02*
X127449343Y-127087957D01*
X127449343Y-127087957D02*
X127463629Y-127059385D01*
X127463629Y-127059385D02*
X127492201Y-127045100D01*
X127492201Y-127045100D02*
X127563629Y-127045100D01*
X127563629Y-127045100D02*
X127592201Y-127030814D01*
X127963629Y-127159385D02*
X127963629Y-126959385D01*
X127963629Y-126859385D02*
X127949343Y-126873671D01*
X127949343Y-126873671D02*
X127963629Y-126887957D01*
X127963629Y-126887957D02*
X127977915Y-126873671D01*
X127977915Y-126873671D02*
X127963629Y-126859385D01*
X127963629Y-126859385D02*
X127963629Y-126887957D01*
X128106486Y-126959385D02*
X128106486Y-127159385D01*
X128106486Y-126987957D02*
X128120772Y-126973671D01*
X128120772Y-126973671D02*
X128149343Y-126959385D01*
X128149343Y-126959385D02*
X128192200Y-126959385D01*
X128192200Y-126959385D02*
X128220772Y-126973671D01*
X128220772Y-126973671D02*
X128235058Y-127002242D01*
X128235058Y-127002242D02*
X128235058Y-127159385D01*
X128506487Y-127145100D02*
X128477915Y-127159385D01*
X128477915Y-127159385D02*
X128420772Y-127159385D01*
X128420772Y-127159385D02*
X128392201Y-127145100D01*
X128392201Y-127145100D02*
X128377915Y-127130814D01*
X128377915Y-127130814D02*
X128363629Y-127102242D01*
X128363629Y-127102242D02*
X128363629Y-127016528D01*
X128363629Y-127016528D02*
X128377915Y-126987957D01*
X128377915Y-126987957D02*
X128392201Y-126973671D01*
X128392201Y-126973671D02*
X128420772Y-126959385D01*
X128420772Y-126959385D02*
X128477915Y-126959385D01*
X128477915Y-126959385D02*
X128506487Y-126973671D01*
D12*
X124024819Y-101076666D02*
X123548628Y-101409999D01*
X124024819Y-101648094D02*
X123024819Y-101648094D01*
X123024819Y-101648094D02*
X123024819Y-101267142D01*
X123024819Y-101267142D02*
X123072438Y-101171904D01*
X123072438Y-101171904D02*
X123120057Y-101124285D01*
X123120057Y-101124285D02*
X123215295Y-101076666D01*
X123215295Y-101076666D02*
X123358152Y-101076666D01*
X123358152Y-101076666D02*
X123453390Y-101124285D01*
X123453390Y-101124285D02*
X123501009Y-101171904D01*
X123501009Y-101171904D02*
X123548628Y-101267142D01*
X123548628Y-101267142D02*
X123548628Y-101648094D01*
X124024819Y-100124285D02*
X124024819Y-100695713D01*
X124024819Y-100409999D02*
X123024819Y-100409999D01*
X123024819Y-100409999D02*
X123167676Y-100505237D01*
X123167676Y-100505237D02*
X123262914Y-100600475D01*
X123262914Y-100600475D02*
X123310533Y-100695713D01*
X105433333Y-111259580D02*
X105385714Y-111307200D01*
X105385714Y-111307200D02*
X105242857Y-111354819D01*
X105242857Y-111354819D02*
X105147619Y-111354819D01*
X105147619Y-111354819D02*
X105004762Y-111307200D01*
X105004762Y-111307200D02*
X104909524Y-111211961D01*
X104909524Y-111211961D02*
X104861905Y-111116723D01*
X104861905Y-111116723D02*
X104814286Y-110926247D01*
X104814286Y-110926247D02*
X104814286Y-110783390D01*
X104814286Y-110783390D02*
X104861905Y-110592914D01*
X104861905Y-110592914D02*
X104909524Y-110497676D01*
X104909524Y-110497676D02*
X105004762Y-110402438D01*
X105004762Y-110402438D02*
X105147619Y-110354819D01*
X105147619Y-110354819D02*
X105242857Y-110354819D01*
X105242857Y-110354819D02*
X105385714Y-110402438D01*
X105385714Y-110402438D02*
X105433333Y-110450057D01*
X106385714Y-111354819D02*
X105814286Y-111354819D01*
X106100000Y-111354819D02*
X106100000Y-110354819D01*
X106100000Y-110354819D02*
X106004762Y-110497676D01*
X106004762Y-110497676D02*
X105909524Y-110592914D01*
X105909524Y-110592914D02*
X105814286Y-110640533D01*
X101968095Y-125154819D02*
X101968095Y-125964342D01*
X101968095Y-125964342D02*
X102015714Y-126059580D01*
X102015714Y-126059580D02*
X102063333Y-126107200D01*
X102063333Y-126107200D02*
X102158571Y-126154819D01*
X102158571Y-126154819D02*
X102349047Y-126154819D01*
X102349047Y-126154819D02*
X102444285Y-126107200D01*
X102444285Y-126107200D02*
X102491904Y-126059580D01*
X102491904Y-126059580D02*
X102539523Y-125964342D01*
X102539523Y-125964342D02*
X102539523Y-125154819D01*
X103539523Y-126154819D02*
X102968095Y-126154819D01*
X103253809Y-126154819D02*
X103253809Y-125154819D01*
X103253809Y-125154819D02*
X103158571Y-125297676D01*
X103158571Y-125297676D02*
X103063333Y-125392914D01*
X103063333Y-125392914D02*
X102968095Y-125440533D01*
X105403333Y-105619580D02*
X105355714Y-105667200D01*
X105355714Y-105667200D02*
X105212857Y-105714819D01*
X105212857Y-105714819D02*
X105117619Y-105714819D01*
X105117619Y-105714819D02*
X104974762Y-105667200D01*
X104974762Y-105667200D02*
X104879524Y-105571961D01*
X104879524Y-105571961D02*
X104831905Y-105476723D01*
X104831905Y-105476723D02*
X104784286Y-105286247D01*
X104784286Y-105286247D02*
X104784286Y-105143390D01*
X104784286Y-105143390D02*
X104831905Y-104952914D01*
X104831905Y-104952914D02*
X104879524Y-104857676D01*
X104879524Y-104857676D02*
X104974762Y-104762438D01*
X104974762Y-104762438D02*
X105117619Y-104714819D01*
X105117619Y-104714819D02*
X105212857Y-104714819D01*
X105212857Y-104714819D02*
X105355714Y-104762438D01*
X105355714Y-104762438D02*
X105403333Y-104810057D01*
X105736667Y-104714819D02*
X106355714Y-104714819D01*
X106355714Y-104714819D02*
X106022381Y-105095771D01*
X106022381Y-105095771D02*
X106165238Y-105095771D01*
X106165238Y-105095771D02*
X106260476Y-105143390D01*
X106260476Y-105143390D02*
X106308095Y-105191009D01*
X106308095Y-105191009D02*
X106355714Y-105286247D01*
X106355714Y-105286247D02*
X106355714Y-105524342D01*
X106355714Y-105524342D02*
X106308095Y-105619580D01*
X106308095Y-105619580D02*
X106260476Y-105667200D01*
X106260476Y-105667200D02*
X106165238Y-105714819D01*
X106165238Y-105714819D02*
X105879524Y-105714819D01*
X105879524Y-105714819D02*
X105784286Y-105667200D01*
X105784286Y-105667200D02*
X105736667Y-105619580D01*
X112705714Y-88708819D02*
X112705714Y-87708819D01*
X112705714Y-87708819D02*
X112943809Y-87708819D01*
X112943809Y-87708819D02*
X113086666Y-87756438D01*
X113086666Y-87756438D02*
X113181904Y-87851676D01*
X113181904Y-87851676D02*
X113229523Y-87946914D01*
X113229523Y-87946914D02*
X113277142Y-88137390D01*
X113277142Y-88137390D02*
X113277142Y-88280247D01*
X113277142Y-88280247D02*
X113229523Y-88470723D01*
X113229523Y-88470723D02*
X113181904Y-88565961D01*
X113181904Y-88565961D02*
X113086666Y-88661200D01*
X113086666Y-88661200D02*
X112943809Y-88708819D01*
X112943809Y-88708819D02*
X112705714Y-88708819D01*
X113658095Y-88661200D02*
X113800952Y-88708819D01*
X113800952Y-88708819D02*
X114039047Y-88708819D01*
X114039047Y-88708819D02*
X114134285Y-88661200D01*
X114134285Y-88661200D02*
X114181904Y-88613580D01*
X114181904Y-88613580D02*
X114229523Y-88518342D01*
X114229523Y-88518342D02*
X114229523Y-88423104D01*
X114229523Y-88423104D02*
X114181904Y-88327866D01*
X114181904Y-88327866D02*
X114134285Y-88280247D01*
X114134285Y-88280247D02*
X114039047Y-88232628D01*
X114039047Y-88232628D02*
X113848571Y-88185009D01*
X113848571Y-88185009D02*
X113753333Y-88137390D01*
X113753333Y-88137390D02*
X113705714Y-88089771D01*
X113705714Y-88089771D02*
X113658095Y-87994533D01*
X113658095Y-87994533D02*
X113658095Y-87899295D01*
X113658095Y-87899295D02*
X113705714Y-87804057D01*
X113705714Y-87804057D02*
X113753333Y-87756438D01*
X113753333Y-87756438D02*
X113848571Y-87708819D01*
X113848571Y-87708819D02*
X114086666Y-87708819D01*
X114086666Y-87708819D02*
X114229523Y-87756438D01*
X115181904Y-88708819D02*
X114610476Y-88708819D01*
X114896190Y-88708819D02*
X114896190Y-87708819D01*
X114896190Y-87708819D02*
X114800952Y-87851676D01*
X114800952Y-87851676D02*
X114705714Y-87946914D01*
X114705714Y-87946914D02*
X114610476Y-87994533D01*
X116183333Y-99484819D02*
X115850000Y-99008628D01*
X115611905Y-99484819D02*
X115611905Y-98484819D01*
X115611905Y-98484819D02*
X115992857Y-98484819D01*
X115992857Y-98484819D02*
X116088095Y-98532438D01*
X116088095Y-98532438D02*
X116135714Y-98580057D01*
X116135714Y-98580057D02*
X116183333Y-98675295D01*
X116183333Y-98675295D02*
X116183333Y-98818152D01*
X116183333Y-98818152D02*
X116135714Y-98913390D01*
X116135714Y-98913390D02*
X116088095Y-98961009D01*
X116088095Y-98961009D02*
X115992857Y-99008628D01*
X115992857Y-99008628D02*
X115611905Y-99008628D01*
X116564286Y-98580057D02*
X116611905Y-98532438D01*
X116611905Y-98532438D02*
X116707143Y-98484819D01*
X116707143Y-98484819D02*
X116945238Y-98484819D01*
X116945238Y-98484819D02*
X117040476Y-98532438D01*
X117040476Y-98532438D02*
X117088095Y-98580057D01*
X117088095Y-98580057D02*
X117135714Y-98675295D01*
X117135714Y-98675295D02*
X117135714Y-98770533D01*
X117135714Y-98770533D02*
X117088095Y-98913390D01*
X117088095Y-98913390D02*
X116516667Y-99484819D01*
X116516667Y-99484819D02*
X117135714Y-99484819D01*
D13*
X128936190Y-104863479D02*
X128936190Y-105377526D01*
X128936190Y-105377526D02*
X128966428Y-105438002D01*
X128966428Y-105438002D02*
X128996666Y-105468241D01*
X128996666Y-105468241D02*
X129057142Y-105498479D01*
X129057142Y-105498479D02*
X129178095Y-105498479D01*
X129178095Y-105498479D02*
X129238571Y-105468241D01*
X129238571Y-105468241D02*
X129268809Y-105438002D01*
X129268809Y-105438002D02*
X129299047Y-105377526D01*
X129299047Y-105377526D02*
X129299047Y-104863479D01*
X129571190Y-104923955D02*
X129601428Y-104893717D01*
X129601428Y-104893717D02*
X129661904Y-104863479D01*
X129661904Y-104863479D02*
X129813095Y-104863479D01*
X129813095Y-104863479D02*
X129873571Y-104893717D01*
X129873571Y-104893717D02*
X129903809Y-104923955D01*
X129903809Y-104923955D02*
X129934047Y-104984431D01*
X129934047Y-104984431D02*
X129934047Y-105044907D01*
X129934047Y-105044907D02*
X129903809Y-105135621D01*
X129903809Y-105135621D02*
X129540952Y-105498479D01*
X129540952Y-105498479D02*
X129934047Y-105498479D01*
D12*
X105433333Y-108449580D02*
X105385714Y-108497200D01*
X105385714Y-108497200D02*
X105242857Y-108544819D01*
X105242857Y-108544819D02*
X105147619Y-108544819D01*
X105147619Y-108544819D02*
X105004762Y-108497200D01*
X105004762Y-108497200D02*
X104909524Y-108401961D01*
X104909524Y-108401961D02*
X104861905Y-108306723D01*
X104861905Y-108306723D02*
X104814286Y-108116247D01*
X104814286Y-108116247D02*
X104814286Y-107973390D01*
X104814286Y-107973390D02*
X104861905Y-107782914D01*
X104861905Y-107782914D02*
X104909524Y-107687676D01*
X104909524Y-107687676D02*
X105004762Y-107592438D01*
X105004762Y-107592438D02*
X105147619Y-107544819D01*
X105147619Y-107544819D02*
X105242857Y-107544819D01*
X105242857Y-107544819D02*
X105385714Y-107592438D01*
X105385714Y-107592438D02*
X105433333Y-107640057D01*
X105814286Y-107640057D02*
X105861905Y-107592438D01*
X105861905Y-107592438D02*
X105957143Y-107544819D01*
X105957143Y-107544819D02*
X106195238Y-107544819D01*
X106195238Y-107544819D02*
X106290476Y-107592438D01*
X106290476Y-107592438D02*
X106338095Y-107640057D01*
X106338095Y-107640057D02*
X106385714Y-107735295D01*
X106385714Y-107735295D02*
X106385714Y-107830533D01*
X106385714Y-107830533D02*
X106338095Y-107973390D01*
X106338095Y-107973390D02*
X105766667Y-108544819D01*
X105766667Y-108544819D02*
X106385714Y-108544819D01*
D14*
%TO.C,G\u002A\u002A\u002A*%
G36*
X126472140Y-125766853D02*
G01*
X126472533Y-125772008D01*
X126471879Y-125773175D01*
X126470380Y-125772191D01*
X126470147Y-125768846D01*
X126470952Y-125765326D01*
X126472140Y-125766853D01*
G37*
G36*
X127798348Y-124806600D02*
G01*
X127816921Y-124806774D01*
X127831248Y-124807194D01*
X127842504Y-124807964D01*
X127851865Y-124809184D01*
X127860505Y-124810957D01*
X127869600Y-124813385D01*
X127876600Y-124815449D01*
X127892090Y-124820319D01*
X127907361Y-124825497D01*
X127919779Y-124830080D01*
X127922776Y-124831296D01*
X127936513Y-124838441D01*
X127952590Y-124848850D01*
X127968983Y-124861016D01*
X127983671Y-124873428D01*
X127994632Y-124884579D01*
X127995338Y-124885434D01*
X128001955Y-124893507D01*
X128007189Y-124899730D01*
X128008579Y-124901310D01*
X128017116Y-124912173D01*
X128026740Y-124926740D01*
X128036189Y-124942845D01*
X128044200Y-124958325D01*
X128049512Y-124971016D01*
X128049851Y-124972066D01*
X128054319Y-124990812D01*
X128057920Y-125014822D01*
X128060595Y-125042813D01*
X128062285Y-125073502D01*
X128062932Y-125105606D01*
X128062477Y-125137842D01*
X128060861Y-125168928D01*
X128059549Y-125184152D01*
X128053931Y-125229624D01*
X128046142Y-125273684D01*
X128035871Y-125317324D01*
X128022809Y-125361536D01*
X128006648Y-125407310D01*
X127987078Y-125455639D01*
X127963789Y-125507513D01*
X127949125Y-125538242D01*
X127932856Y-125571811D01*
X127919261Y-125600080D01*
X127908060Y-125623645D01*
X127898970Y-125643104D01*
X127891709Y-125659052D01*
X127887972Y-125667506D01*
X127885034Y-125675509D01*
X127882376Y-125685722D01*
X127879890Y-125698881D01*
X127877470Y-125715723D01*
X127875010Y-125736982D01*
X127872405Y-125763396D01*
X127869703Y-125793858D01*
X127865812Y-125833219D01*
X127861139Y-125869914D01*
X127855855Y-125902827D01*
X127850128Y-125930841D01*
X127847036Y-125943084D01*
X127843166Y-125957148D01*
X127839036Y-125972091D01*
X127837620Y-125977192D01*
X127830120Y-126000671D01*
X127819940Y-126027558D01*
X127807911Y-126055994D01*
X127794870Y-126084121D01*
X127781647Y-126110082D01*
X127769079Y-126132016D01*
X127765990Y-126136878D01*
X127762076Y-126143620D01*
X127758737Y-126150071D01*
X127751885Y-126162392D01*
X127742515Y-126177084D01*
X127732394Y-126191505D01*
X127723437Y-126202844D01*
X127716844Y-126210502D01*
X127711952Y-126216312D01*
X127710842Y-126217686D01*
X127687034Y-126247402D01*
X127665172Y-126272615D01*
X127644051Y-126294617D01*
X127622470Y-126314702D01*
X127613075Y-126322796D01*
X127601796Y-126332496D01*
X127588813Y-126343927D01*
X127578877Y-126352859D01*
X127568322Y-126362035D01*
X127558092Y-126370207D01*
X127550505Y-126375537D01*
X127543248Y-126380219D01*
X127538821Y-126383620D01*
X127538527Y-126383947D01*
X127534778Y-126386856D01*
X127526537Y-126392213D01*
X127514995Y-126399322D01*
X127501345Y-126407491D01*
X127486776Y-126416024D01*
X127472481Y-126424227D01*
X127459650Y-126431407D01*
X127449475Y-126436868D01*
X127443147Y-126439916D01*
X127441809Y-126440319D01*
X127438068Y-126441625D01*
X127430080Y-126445054D01*
X127419544Y-126449876D01*
X127419113Y-126450079D01*
X127371881Y-126469691D01*
X127321019Y-126485750D01*
X127266117Y-126498332D01*
X127206763Y-126507509D01*
X127142545Y-126513358D01*
X127073053Y-126515952D01*
X127054633Y-126516101D01*
X127024251Y-126516179D01*
X126958983Y-126548977D01*
X126907803Y-126574194D01*
X126861194Y-126596031D01*
X126818270Y-126614817D01*
X126778146Y-126630878D01*
X126739936Y-126644542D01*
X126702753Y-126656137D01*
X126665713Y-126665990D01*
X126627929Y-126674427D01*
X126610063Y-126677922D01*
X126588032Y-126681227D01*
X126562131Y-126683789D01*
X126534287Y-126685532D01*
X126506424Y-126686376D01*
X126480469Y-126686245D01*
X126458348Y-126685060D01*
X126451326Y-126684316D01*
X126415375Y-126678608D01*
X126383817Y-126670777D01*
X126354932Y-126660106D01*
X126326999Y-126645879D01*
X126298298Y-126627380D01*
X126277250Y-126611829D01*
X126255640Y-126594133D01*
X126238057Y-126577001D01*
X126223562Y-126559067D01*
X126211218Y-126538963D01*
X126200085Y-126515323D01*
X126189225Y-126486779D01*
X126187025Y-126480427D01*
X126175004Y-126445267D01*
X126173685Y-126376543D01*
X126173324Y-126346854D01*
X126173425Y-126337653D01*
X126264705Y-126337653D01*
X126265073Y-126380810D01*
X126269753Y-126420415D01*
X126278689Y-126456122D01*
X126291822Y-126487581D01*
X126309093Y-126514447D01*
X126325852Y-126532398D01*
X126353704Y-126553398D01*
X126386230Y-126570579D01*
X126422400Y-126583432D01*
X126436904Y-126587081D01*
X126451738Y-126589311D01*
X126471622Y-126590730D01*
X126495065Y-126591372D01*
X126520574Y-126591272D01*
X126546658Y-126590465D01*
X126571825Y-126588985D01*
X126594583Y-126586868D01*
X126613440Y-126584149D01*
X126619958Y-126582807D01*
X126680227Y-126566478D01*
X126742350Y-126545074D01*
X126806572Y-126518480D01*
X126873137Y-126486580D01*
X126942291Y-126449259D01*
X126997676Y-126416286D01*
X127180851Y-126416286D01*
X127182546Y-126418874D01*
X127190124Y-126419487D01*
X127203187Y-126418167D01*
X127221338Y-126414961D01*
X127244181Y-126409912D01*
X127249928Y-126408526D01*
X127296821Y-126395686D01*
X127341014Y-126380550D01*
X127384315Y-126362374D01*
X127428532Y-126340413D01*
X127465501Y-126319782D01*
X127474559Y-126313987D01*
X127487127Y-126305272D01*
X127501567Y-126294840D01*
X127516242Y-126283899D01*
X127529517Y-126273654D01*
X127539752Y-126265310D01*
X127541447Y-126263838D01*
X127590320Y-126216358D01*
X127633870Y-126165018D01*
X127672170Y-126109715D01*
X127705294Y-126050345D01*
X127726286Y-126004286D01*
X127735218Y-125981258D01*
X127744417Y-125954828D01*
X127753193Y-125927196D01*
X127760855Y-125900563D01*
X127766714Y-125877129D01*
X127767952Y-125871367D01*
X127770606Y-125858523D01*
X127772978Y-125847218D01*
X127774526Y-125840033D01*
X127776369Y-125831788D01*
X127768661Y-125840033D01*
X127761875Y-125847870D01*
X127753969Y-125857780D01*
X127751180Y-125861472D01*
X127745206Y-125869426D01*
X127740887Y-125874970D01*
X127739740Y-125876314D01*
X127736953Y-125879574D01*
X127731334Y-125886442D01*
X127724884Y-125894455D01*
X127676769Y-125952758D01*
X127628078Y-126007897D01*
X127616036Y-126020976D01*
X127599623Y-126038351D01*
X127580179Y-126058417D01*
X127558442Y-126080453D01*
X127535148Y-126103742D01*
X127511035Y-126127564D01*
X127486840Y-126151200D01*
X127463300Y-126173933D01*
X127441153Y-126195042D01*
X127421136Y-126213809D01*
X127403985Y-126229515D01*
X127390438Y-126241442D01*
X127386833Y-126244468D01*
X127370707Y-126257902D01*
X127356633Y-126269992D01*
X127341555Y-126283372D01*
X127337532Y-126286991D01*
X127325190Y-126297692D01*
X127310719Y-126309625D01*
X127297753Y-126319820D01*
X127287608Y-126327595D01*
X127279606Y-126333845D01*
X127275114Y-126337500D01*
X127274665Y-126337919D01*
X127270208Y-126341954D01*
X127262108Y-126348631D01*
X127252013Y-126356650D01*
X127241572Y-126364714D01*
X127232433Y-126371524D01*
X127228426Y-126374354D01*
X127217661Y-126382217D01*
X127206240Y-126391401D01*
X127195524Y-126400706D01*
X127186874Y-126408932D01*
X127181650Y-126414882D01*
X127180851Y-126416286D01*
X126997676Y-126416286D01*
X127014280Y-126406401D01*
X127068523Y-126371710D01*
X127085570Y-126360286D01*
X127104910Y-126346957D01*
X127125624Y-126332389D01*
X127146797Y-126317251D01*
X127167511Y-126302212D01*
X127186849Y-126287938D01*
X127203894Y-126275099D01*
X127217730Y-126264362D01*
X127227439Y-126256395D01*
X127230138Y-126253967D01*
X127238100Y-126246757D01*
X127245159Y-126240722D01*
X127251659Y-126235340D01*
X127261254Y-126227363D01*
X127271977Y-126218429D01*
X127273016Y-126217562D01*
X127283714Y-126208646D01*
X127293450Y-126200550D01*
X127300271Y-126194897D01*
X127300722Y-126194525D01*
X127308375Y-126188065D01*
X127314076Y-126183054D01*
X127318960Y-126178740D01*
X127327371Y-126171437D01*
X127337819Y-126162435D01*
X127342440Y-126158472D01*
X127353279Y-126149128D01*
X127362678Y-126140913D01*
X127369154Y-126135126D01*
X127370643Y-126133735D01*
X127374560Y-126130005D01*
X127382479Y-126122507D01*
X127393600Y-126111997D01*
X127407126Y-126099229D01*
X127422255Y-126084961D01*
X127426661Y-126080807D01*
X127445394Y-126063144D01*
X127460150Y-126049183D01*
X127471750Y-126038103D01*
X127481016Y-126029082D01*
X127488772Y-126021298D01*
X127495838Y-126013928D01*
X127503037Y-126006152D01*
X127511192Y-125997145D01*
X127518737Y-125988747D01*
X127529670Y-125976594D01*
X127539816Y-125965360D01*
X127547861Y-125956499D01*
X127551720Y-125952290D01*
X127557409Y-125945881D01*
X127565899Y-125935999D01*
X127575802Y-125924267D01*
X127581404Y-125917547D01*
X127592057Y-125904766D01*
X127602600Y-125892221D01*
X127611385Y-125881867D01*
X127614505Y-125878237D01*
X127622776Y-125868358D01*
X127632677Y-125856072D01*
X127640891Y-125845558D01*
X127650886Y-125832513D01*
X127662227Y-125817707D01*
X127671210Y-125805978D01*
X127681395Y-125792423D01*
X127692370Y-125777430D01*
X127700647Y-125765822D01*
X127707687Y-125755945D01*
X127713355Y-125748339D01*
X127716527Y-125744507D01*
X127716671Y-125744384D01*
X127719253Y-125741163D01*
X127724728Y-125733560D01*
X127732321Y-125722672D01*
X127741257Y-125709600D01*
X127742271Y-125708103D01*
X127769428Y-125666209D01*
X127796388Y-125621328D01*
X127822743Y-125574329D01*
X127848084Y-125526082D01*
X127872005Y-125477458D01*
X127894096Y-125429327D01*
X127913951Y-125382560D01*
X127931161Y-125338027D01*
X127945319Y-125296599D01*
X127956016Y-125259146D01*
X127959404Y-125244695D01*
X127962353Y-125227087D01*
X127964722Y-125204944D01*
X127966503Y-125179449D01*
X127967690Y-125151781D01*
X127968276Y-125123124D01*
X127968255Y-125094659D01*
X127967619Y-125067566D01*
X127966363Y-125043029D01*
X127964478Y-125022227D01*
X127961959Y-125006343D01*
X127960791Y-125001693D01*
X127955667Y-124989590D01*
X127947074Y-124974777D01*
X127936269Y-124959138D01*
X127924512Y-124944564D01*
X127918140Y-124937729D01*
X127901918Y-124925479D01*
X127880143Y-124915399D01*
X127853558Y-124907688D01*
X127822904Y-124902545D01*
X127788923Y-124900171D01*
X127777870Y-124900028D01*
X127733156Y-124901287D01*
X127689264Y-124905214D01*
X127644707Y-124912050D01*
X127597998Y-124922034D01*
X127547651Y-124935404D01*
X127535229Y-124939034D01*
X127514253Y-124945575D01*
X127491982Y-124953075D01*
X127469276Y-124961186D01*
X127446996Y-124969561D01*
X127426003Y-124977852D01*
X127407158Y-124985714D01*
X127391322Y-124992799D01*
X127379355Y-124998760D01*
X127372120Y-125003250D01*
X127370315Y-125005494D01*
X127373154Y-125008159D01*
X127380767Y-125012617D01*
X127391797Y-125018229D01*
X127404888Y-125024351D01*
X127418684Y-125030341D01*
X127431828Y-125035558D01*
X127439658Y-125038321D01*
X127453014Y-125042189D01*
X127465225Y-125044270D01*
X127477864Y-125044511D01*
X127492501Y-125042861D01*
X127510706Y-125039267D01*
X127526983Y-125035428D01*
X127554120Y-125029041D01*
X127576600Y-125024432D01*
X127596044Y-125021359D01*
X127614076Y-125019581D01*
X127632318Y-125018859D01*
X127639124Y-125018812D01*
X127660693Y-125019958D01*
X127684068Y-125023096D01*
X127706744Y-125027769D01*
X127726213Y-125033520D01*
X127731744Y-125035677D01*
X127745100Y-125042986D01*
X127760451Y-125053878D01*
X127775793Y-125066689D01*
X127789124Y-125079756D01*
X127797992Y-125090724D01*
X127807295Y-125105664D01*
X127814103Y-125119333D01*
X127818781Y-125133240D01*
X127821695Y-125148892D01*
X127823210Y-125167797D01*
X127823690Y-125191464D01*
X127823694Y-125196870D01*
X127823244Y-125224366D01*
X127821907Y-125246822D01*
X127819568Y-125265753D01*
X127817639Y-125276029D01*
X127805815Y-125325020D01*
X127791137Y-125374038D01*
X127773333Y-125423686D01*
X127752128Y-125474566D01*
X127727249Y-125527283D01*
X127698420Y-125582440D01*
X127665369Y-125640638D01*
X127627821Y-125702483D01*
X127613892Y-125724590D01*
X127605716Y-125737279D01*
X127598721Y-125747812D01*
X127593715Y-125754991D01*
X127591612Y-125757572D01*
X127588855Y-125760800D01*
X127583214Y-125768270D01*
X127575563Y-125778802D01*
X127568391Y-125788910D01*
X127557894Y-125803509D01*
X127546821Y-125818344D01*
X127536846Y-125831195D01*
X127532333Y-125836735D01*
X127524298Y-125846374D01*
X127517677Y-125854413D01*
X127513868Y-125859157D01*
X127513808Y-125859235D01*
X127508866Y-125865318D01*
X127505544Y-125869165D01*
X127500141Y-125875570D01*
X127493568Y-125883755D01*
X127492911Y-125884595D01*
X127480855Y-125899184D01*
X127464871Y-125917218D01*
X127445919Y-125937712D01*
X127424959Y-125959682D01*
X127402949Y-125982143D01*
X127380849Y-126004110D01*
X127359619Y-126024598D01*
X127340219Y-126042621D01*
X127330681Y-126051123D01*
X127319576Y-126060873D01*
X127309906Y-126069434D01*
X127303052Y-126075580D01*
X127300959Y-126077509D01*
X127294569Y-126083193D01*
X127284239Y-126091951D01*
X127271205Y-126102771D01*
X127256702Y-126114638D01*
X127241966Y-126126539D01*
X127228234Y-126137461D01*
X127220534Y-126143475D01*
X127209158Y-126152350D01*
X127199111Y-126160327D01*
X127192043Y-126166090D01*
X127190520Y-126167393D01*
X127177243Y-126178269D01*
X127159174Y-126191859D01*
X127137224Y-126207566D01*
X127112308Y-126224789D01*
X127085335Y-126242932D01*
X127057219Y-126261395D01*
X127028872Y-126279580D01*
X127001206Y-126296889D01*
X126975134Y-126312722D01*
X126951567Y-126326483D01*
X126931417Y-126337571D01*
X126929996Y-126338317D01*
X126918121Y-126344649D01*
X126908620Y-126349960D01*
X126902916Y-126353443D01*
X126901960Y-126354208D01*
X126898408Y-126356406D01*
X126889898Y-126360816D01*
X126877485Y-126366938D01*
X126862223Y-126374271D01*
X126845166Y-126382313D01*
X126827368Y-126390562D01*
X126809885Y-126398518D01*
X126793771Y-126405678D01*
X126793250Y-126405906D01*
X126746386Y-126424562D01*
X126701205Y-126438954D01*
X126658138Y-126449047D01*
X126617615Y-126454810D01*
X126580067Y-126456209D01*
X126545924Y-126453211D01*
X126515617Y-126445783D01*
X126489577Y-126433892D01*
X126483080Y-126429738D01*
X126463717Y-126414053D01*
X126446130Y-126395347D01*
X126432113Y-126375657D01*
X126426990Y-126366052D01*
X126416800Y-126341102D01*
X126409936Y-126316410D01*
X126406169Y-126290379D01*
X126405268Y-126261413D01*
X126405675Y-126253554D01*
X126499607Y-126253554D01*
X126500929Y-126282189D01*
X126505121Y-126305397D01*
X126512618Y-126323881D01*
X126523856Y-126338344D01*
X126539271Y-126349492D01*
X126559299Y-126358028D01*
X126565536Y-126359971D01*
X126576851Y-126361965D01*
X126591963Y-126362918D01*
X126608544Y-126362867D01*
X126624271Y-126361851D01*
X126636816Y-126359906D01*
X126640755Y-126358756D01*
X126648359Y-126355932D01*
X126637990Y-126342884D01*
X126631673Y-126335436D01*
X126622040Y-126324678D01*
X126610376Y-126312023D01*
X126597969Y-126298886D01*
X126597403Y-126298294D01*
X126577231Y-126277138D01*
X126561075Y-126259942D01*
X126548294Y-126245990D01*
X126538248Y-126234568D01*
X126530298Y-126224963D01*
X126523802Y-126216460D01*
X126522682Y-126214913D01*
X126516031Y-126206549D01*
X126510357Y-126200968D01*
X126507670Y-126199545D01*
X126504340Y-126201971D01*
X126501940Y-126209519D01*
X126500408Y-126222601D01*
X126499685Y-126241626D01*
X126499607Y-126253554D01*
X126405675Y-126253554D01*
X126407004Y-126227916D01*
X126407031Y-126227581D01*
X126408807Y-126209723D01*
X126411250Y-126192597D01*
X126414672Y-126174691D01*
X126419382Y-126154492D01*
X126425691Y-126130488D01*
X126430533Y-126113065D01*
X126432139Y-126106806D01*
X126432870Y-126101176D01*
X126432507Y-126094916D01*
X126430830Y-126086768D01*
X126427622Y-126075473D01*
X126422661Y-126059773D01*
X126419625Y-126050398D01*
X126413684Y-126031903D01*
X126407991Y-126013826D01*
X126403100Y-125997944D01*
X126399561Y-125986035D01*
X126398865Y-125983573D01*
X126395774Y-125972993D01*
X126393560Y-125967857D01*
X126391490Y-125967208D01*
X126388833Y-125970095D01*
X126388684Y-125970297D01*
X126384557Y-125977015D01*
X126378225Y-125988662D01*
X126370214Y-126004161D01*
X126361053Y-126022438D01*
X126351269Y-126042417D01*
X126341389Y-126063023D01*
X126331942Y-126083181D01*
X126323455Y-126101815D01*
X126317480Y-126115439D01*
X126306637Y-126141481D01*
X126298118Y-126163878D01*
X126291217Y-126184844D01*
X126285229Y-126206596D01*
X126279449Y-126231348D01*
X126277144Y-126242073D01*
X126268710Y-126291292D01*
X126264705Y-126337653D01*
X126173425Y-126337653D01*
X126173596Y-126322057D01*
X126174654Y-126300468D01*
X126176649Y-126280398D01*
X126179736Y-126260164D01*
X126184064Y-126238077D01*
X126187666Y-126221712D01*
X126195253Y-126191077D01*
X126204536Y-126158142D01*
X126214924Y-126124742D01*
X126225825Y-126092713D01*
X126236646Y-126063890D01*
X126244781Y-126044526D01*
X126252220Y-126028257D01*
X126260694Y-126010271D01*
X126269570Y-125991854D01*
X126278217Y-125974292D01*
X126285999Y-125958869D01*
X126292286Y-125946873D01*
X126296431Y-125939608D01*
X126300752Y-125932783D01*
X126307806Y-125921568D01*
X126316834Y-125907172D01*
X126327079Y-125890802D01*
X126335101Y-125877964D01*
X126365990Y-125828490D01*
X126368170Y-125752629D01*
X126368735Y-125738374D01*
X126467114Y-125738374D01*
X126467521Y-125766371D01*
X126470226Y-125819539D01*
X126475630Y-125868079D01*
X126484137Y-125913418D01*
X126496147Y-125956984D01*
X126512061Y-126000204D01*
X126532282Y-126044506D01*
X126557211Y-126091316D01*
X126560612Y-126097299D01*
X126575997Y-126123330D01*
X126589925Y-126144840D01*
X126603497Y-126163385D01*
X126617813Y-126180525D01*
X126624735Y-126188135D01*
X126635276Y-126199528D01*
X126645105Y-126210266D01*
X126652663Y-126218640D01*
X126654851Y-126221118D01*
X126666487Y-126233663D01*
X126680519Y-126247530D01*
X126696050Y-126261963D01*
X126712181Y-126276206D01*
X126728015Y-126289502D01*
X126742656Y-126301098D01*
X126755204Y-126310235D01*
X126764762Y-126316159D01*
X126770029Y-126318116D01*
X126773404Y-126316742D01*
X126781570Y-126312898D01*
X126793444Y-126307109D01*
X126807939Y-126299900D01*
X126814426Y-126296636D01*
X126829900Y-126288762D01*
X126843369Y-126281786D01*
X126853682Y-126276316D01*
X126859686Y-126272956D01*
X126860602Y-126272355D01*
X126864666Y-126269833D01*
X126873331Y-126264868D01*
X126885385Y-126258142D01*
X126899621Y-126250336D01*
X126901960Y-126249065D01*
X126926798Y-126234923D01*
X126955368Y-126217526D01*
X126986274Y-126197768D01*
X127018121Y-126176546D01*
X127049514Y-126154755D01*
X127055330Y-126150611D01*
X127069259Y-126140571D01*
X127084504Y-126129459D01*
X127100098Y-126117995D01*
X127115072Y-126106900D01*
X127128458Y-126096893D01*
X127139288Y-126088695D01*
X127146594Y-126083026D01*
X127149331Y-126080708D01*
X127152864Y-126077814D01*
X127159728Y-126072816D01*
X127162524Y-126070862D01*
X127170611Y-126065056D01*
X127176600Y-126060376D01*
X127177607Y-126059477D01*
X127182207Y-126055508D01*
X127189802Y-126049357D01*
X127193846Y-126046176D01*
X127204555Y-126037665D01*
X127216088Y-126028239D01*
X127226450Y-126019551D01*
X127233642Y-126013254D01*
X127233709Y-126013193D01*
X127244031Y-126003641D01*
X127256948Y-125991651D01*
X127271398Y-125978212D01*
X127286320Y-125964314D01*
X127300651Y-125950946D01*
X127313332Y-125939096D01*
X127323301Y-125929754D01*
X127329497Y-125923909D01*
X127329501Y-125923905D01*
X127347385Y-125906014D01*
X127368022Y-125883924D01*
X127390371Y-125858834D01*
X127413395Y-125831943D01*
X127436054Y-125804451D01*
X127457310Y-125777557D01*
X127465009Y-125767471D01*
X127473355Y-125756531D01*
X127480269Y-125747687D01*
X127484756Y-125742200D01*
X127485808Y-125741085D01*
X127488564Y-125737703D01*
X127494248Y-125729884D01*
X127502130Y-125718681D01*
X127511479Y-125705146D01*
X127521565Y-125690331D01*
X127531658Y-125675289D01*
X127535712Y-125669174D01*
X127542546Y-125658896D01*
X127548377Y-125650253D01*
X127551594Y-125645611D01*
X127555967Y-125639121D01*
X127562886Y-125628382D01*
X127571483Y-125614785D01*
X127580889Y-125599724D01*
X127590235Y-125584593D01*
X127598652Y-125570786D01*
X127605273Y-125559694D01*
X127606934Y-125556835D01*
X127614578Y-125543062D01*
X127623471Y-125526265D01*
X127633152Y-125507397D01*
X127643162Y-125487412D01*
X127653040Y-125467262D01*
X127662325Y-125447899D01*
X127670557Y-125430278D01*
X127677275Y-125415351D01*
X127682018Y-125404071D01*
X127684326Y-125397390D01*
X127684475Y-125396389D01*
X127682694Y-125388772D01*
X127678174Y-125378905D01*
X127675305Y-125374113D01*
X127669030Y-125364902D01*
X127660630Y-125353058D01*
X127650997Y-125339780D01*
X127641024Y-125326271D01*
X127631601Y-125313732D01*
X127623622Y-125303364D01*
X127617977Y-125296368D01*
X127615949Y-125294169D01*
X127611995Y-125290179D01*
X127605126Y-125282751D01*
X127596762Y-125273422D01*
X127595954Y-125272508D01*
X127583687Y-125259653D01*
X127567793Y-125244513D01*
X127550006Y-125228641D01*
X127532065Y-125213590D01*
X127517088Y-125201933D01*
X127508414Y-125195310D01*
X127501520Y-125189701D01*
X127499537Y-125187920D01*
X127494647Y-125184300D01*
X127492737Y-125183677D01*
X127488707Y-125181679D01*
X127483903Y-125177853D01*
X127473215Y-125169663D01*
X127457571Y-125159730D01*
X127438175Y-125148672D01*
X127416231Y-125137107D01*
X127392944Y-125125651D01*
X127386839Y-125122855D01*
X127584703Y-125122855D01*
X127586994Y-125127288D01*
X127593090Y-125134692D01*
X127601829Y-125143699D01*
X127605002Y-125146704D01*
X127626369Y-125166779D01*
X127643952Y-125183917D01*
X127659029Y-125199411D01*
X127672878Y-125214552D01*
X127678769Y-125221270D01*
X127689119Y-125233163D01*
X127699245Y-125244723D01*
X127707369Y-125253921D01*
X127709136Y-125255902D01*
X127715386Y-125263372D01*
X127719253Y-125268942D01*
X127719855Y-125270451D01*
X127721974Y-125271700D01*
X127723008Y-125271219D01*
X127725305Y-125267174D01*
X127728038Y-125258704D01*
X127729951Y-125250692D01*
X127731556Y-125238697D01*
X127732505Y-125222601D01*
X127732683Y-125204877D01*
X127732484Y-125197153D01*
X127730422Y-125172600D01*
X127726193Y-125153701D01*
X127719573Y-125139806D01*
X127710339Y-125130266D01*
X127709125Y-125129435D01*
X127697866Y-125124209D01*
X127681820Y-125119609D01*
X127662792Y-125116010D01*
X127642586Y-125113787D01*
X127631233Y-125113278D01*
X127610759Y-125113486D01*
X127596415Y-125115014D01*
X127587854Y-125117934D01*
X127584730Y-125122317D01*
X127584703Y-125122855D01*
X127386839Y-125122855D01*
X127369516Y-125114922D01*
X127347153Y-125105538D01*
X127331207Y-125099543D01*
X127272768Y-125081846D01*
X127214920Y-125070265D01*
X127156318Y-125064607D01*
X127095617Y-125064683D01*
X127087803Y-125065087D01*
X127024987Y-125071715D01*
X126963361Y-125084449D01*
X126902320Y-125103444D01*
X126843092Y-125128000D01*
X126830888Y-125133604D01*
X126821117Y-125137962D01*
X126815188Y-125140451D01*
X126814099Y-125140800D01*
X126810667Y-125142484D01*
X126804291Y-125146581D01*
X126803703Y-125146986D01*
X126796930Y-125151520D01*
X126786408Y-125158391D01*
X126773962Y-125166410D01*
X126768380Y-125169975D01*
X126752383Y-125180241D01*
X126740511Y-125188118D01*
X126731273Y-125194678D01*
X126723177Y-125200989D01*
X126714731Y-125208123D01*
X126712501Y-125210063D01*
X126702041Y-125219138D01*
X126691272Y-125228390D01*
X126687655Y-125231472D01*
X126651086Y-125265845D01*
X126616052Y-125305249D01*
X126583750Y-125348125D01*
X126555378Y-125392916D01*
X126537218Y-125427201D01*
X126514608Y-125477978D01*
X126496720Y-125527481D01*
X126483289Y-125576991D01*
X126474054Y-125627789D01*
X126468749Y-125681156D01*
X126467114Y-125738374D01*
X126368735Y-125738374D01*
X126370155Y-125702515D01*
X126373229Y-125657815D01*
X126377662Y-125617398D01*
X126383720Y-125580135D01*
X126391672Y-125544894D01*
X126401786Y-125510545D01*
X126414331Y-125475956D01*
X126429573Y-125439998D01*
X126447781Y-125401540D01*
X126454652Y-125387781D01*
X126464595Y-125368704D01*
X126475658Y-125348517D01*
X126487230Y-125328233D01*
X126498703Y-125308862D01*
X126509466Y-125291419D01*
X126518910Y-125276913D01*
X126526426Y-125266358D01*
X126530909Y-125261187D01*
X126534878Y-125256894D01*
X126541264Y-125249320D01*
X126546338Y-125243046D01*
X126561416Y-125225428D01*
X126580286Y-125205432D01*
X126601444Y-125184494D01*
X126623383Y-125164049D01*
X126644596Y-125145533D01*
X126663577Y-125130382D01*
X126667783Y-125127299D01*
X126676281Y-125121040D01*
X126682386Y-125116238D01*
X126684274Y-125114495D01*
X126687522Y-125111996D01*
X126695085Y-125106798D01*
X126705703Y-125099722D01*
X126718113Y-125091591D01*
X126731053Y-125083227D01*
X126743260Y-125075449D01*
X126753472Y-125069082D01*
X126760134Y-125065110D01*
X126774955Y-125057157D01*
X126794013Y-125047556D01*
X126815452Y-125037185D01*
X126837416Y-125026923D01*
X126858049Y-125017649D01*
X126875495Y-125010240D01*
X126879138Y-125008784D01*
X126891006Y-125004041D01*
X126901967Y-124999533D01*
X126906908Y-124997428D01*
X126916860Y-124994075D01*
X126931773Y-124990311D01*
X126950052Y-124986465D01*
X126970103Y-124982866D01*
X126990332Y-124979845D01*
X126994582Y-124979299D01*
X127004553Y-124978346D01*
X127019968Y-124977240D01*
X127039678Y-124976044D01*
X127062533Y-124974825D01*
X127087385Y-124973648D01*
X127113084Y-124972577D01*
X127113320Y-124972568D01*
X127138658Y-124971509D01*
X127162830Y-124970347D01*
X127184762Y-124969147D01*
X127203379Y-124967971D01*
X127217605Y-124966882D01*
X127226367Y-124965944D01*
X127226643Y-124965903D01*
X127236142Y-124963697D01*
X127248388Y-124959477D01*
X127264106Y-124952940D01*
X127284017Y-124943784D01*
X127308844Y-124931704D01*
X127312398Y-124929940D01*
X127342870Y-124914947D01*
X127369078Y-124902489D01*
X127392545Y-124891930D01*
X127414789Y-124882632D01*
X127437332Y-124873957D01*
X127461693Y-124865269D01*
X127487404Y-124856588D01*
X127535165Y-124841521D01*
X127578695Y-124829521D01*
X127619457Y-124820334D01*
X127658919Y-124813704D01*
X127698545Y-124809376D01*
X127739802Y-124807094D01*
X127774353Y-124806570D01*
X127798348Y-124806600D01*
G37*
D15*
%TO.C,R1*%
X120730000Y-98990000D02*
X120730000Y-102830000D01*
X122570000Y-98990000D02*
X122570000Y-102830000D01*
%TO.C,C1*%
X101368748Y-109780000D02*
X102791252Y-109780000D01*
X101368748Y-111600000D02*
X102791252Y-111600000D01*
D16*
%TO.C,U1*%
X101205000Y-120800000D02*
X101205000Y-120870000D01*
X101205000Y-120800000D02*
X101275000Y-120800000D01*
X101205000Y-123800000D02*
X101205000Y-123730000D01*
X101205000Y-123800000D02*
X101275000Y-123800000D01*
X104205000Y-120800000D02*
X104135000Y-120800000D01*
X104205000Y-120800000D02*
X104205000Y-120870000D01*
X104205000Y-123800000D02*
X104135000Y-123800000D01*
X104205000Y-123800000D02*
X104205000Y-123730000D01*
D10*
X103805000Y-119915000D02*
G75*
G02*
X103605000Y-119915000I-100000J0D01*
G01*
X103605000Y-119915000D02*
G75*
G02*
X103805000Y-119915000I100000J0D01*
G01*
D15*
%TO.C,C3*%
X101338748Y-104140000D02*
X102761252Y-104140000D01*
X101338748Y-105960000D02*
X102761252Y-105960000D01*
%TO.C,DS1*%
X100520000Y-75700000D02*
X127920000Y-75700000D01*
X100520000Y-103000000D02*
X100520000Y-75700000D01*
X100942000Y-78995000D02*
X124042000Y-78995000D01*
X100942000Y-95595000D02*
X100942000Y-78995000D01*
X109221000Y-76189000D02*
X109221000Y-78602000D01*
X109221000Y-76189000D02*
X119000000Y-76189000D01*
X119000000Y-76189000D02*
X119000000Y-78602000D01*
X119000000Y-78602000D02*
X109221000Y-78602000D01*
X124042000Y-78995000D02*
X127128000Y-78995000D01*
X124042000Y-95595000D02*
X100942000Y-95595000D01*
X124042000Y-95595000D02*
X127382000Y-95620000D01*
X127382000Y-78983000D02*
X127128000Y-78995000D01*
X127382000Y-95620000D02*
X127382000Y-78983000D01*
X127920000Y-75700000D02*
X127920000Y-103000000D01*
X127920000Y-103000000D02*
X100520000Y-103000000D01*
D14*
%TO.C,G\u002A\u002A\u002A*%
G36*
X102649009Y-116765580D02*
G01*
X102718718Y-116769552D01*
X102778599Y-116776940D01*
X102810000Y-116783725D01*
X102935993Y-116828451D01*
X103051794Y-116889813D01*
X103156147Y-116966557D01*
X103247797Y-117057427D01*
X103325489Y-117161168D01*
X103387969Y-117276525D01*
X103433981Y-117402243D01*
X103436172Y-117410023D01*
X103445851Y-117459977D01*
X103452120Y-117523730D01*
X103454976Y-117595377D01*
X103454419Y-117669009D01*
X103450447Y-117738718D01*
X103443059Y-117798599D01*
X103436274Y-117830000D01*
X103391897Y-117954887D01*
X103330903Y-118070109D01*
X103254708Y-118174240D01*
X103164728Y-118265858D01*
X103062379Y-118343540D01*
X102949076Y-118405863D01*
X102826234Y-118451403D01*
X102815000Y-118454563D01*
X102780323Y-118461303D01*
X102731462Y-118467221D01*
X102674120Y-118472000D01*
X102614000Y-118475321D01*
X102556806Y-118476867D01*
X102508242Y-118476319D01*
X102475000Y-118473523D01*
X102377360Y-118450723D01*
X102276072Y-118414360D01*
X102178567Y-118367521D01*
X102096564Y-118316383D01*
X102000439Y-118235535D01*
X101916519Y-118139993D01*
X101846313Y-118031959D01*
X101791326Y-117913636D01*
X101763827Y-117829976D01*
X101754148Y-117780022D01*
X101747879Y-117716269D01*
X101745023Y-117644622D01*
X101745514Y-117579709D01*
X101815096Y-117579709D01*
X101815495Y-117670354D01*
X101823920Y-117756631D01*
X101837962Y-117822991D01*
X101882079Y-117942970D01*
X101942232Y-118052099D01*
X102017084Y-118149165D01*
X102105300Y-118232949D01*
X102205543Y-118302239D01*
X102316477Y-118355816D01*
X102436767Y-118392467D01*
X102471639Y-118399476D01*
X102525829Y-118405143D01*
X102592205Y-118406032D01*
X102663637Y-118402552D01*
X102732995Y-118395111D01*
X102793149Y-118384117D01*
X102808286Y-118380202D01*
X102926618Y-118336718D01*
X103034663Y-118276685D01*
X103131096Y-118201429D01*
X103214594Y-118112280D01*
X103283831Y-118010566D01*
X103337485Y-117897617D01*
X103361648Y-117825000D01*
X103377281Y-117747882D01*
X103384903Y-117660290D01*
X103384504Y-117569645D01*
X103376079Y-117483368D01*
X103362037Y-117417008D01*
X103317725Y-117296329D01*
X103257343Y-117186779D01*
X103182020Y-117089488D01*
X103092881Y-117005588D01*
X102991056Y-116936208D01*
X102877671Y-116882480D01*
X102805000Y-116858351D01*
X102727882Y-116842718D01*
X102640290Y-116835096D01*
X102549645Y-116835495D01*
X102463368Y-116843920D01*
X102397008Y-116857962D01*
X102276329Y-116902274D01*
X102166779Y-116962656D01*
X102069488Y-117037979D01*
X101985588Y-117127118D01*
X101916208Y-117228943D01*
X101862480Y-117342328D01*
X101838351Y-117415000D01*
X101822718Y-117492117D01*
X101815096Y-117579709D01*
X101745514Y-117579709D01*
X101745580Y-117570990D01*
X101749552Y-117501281D01*
X101756940Y-117441400D01*
X101763725Y-117410000D01*
X101808451Y-117284006D01*
X101869813Y-117168205D01*
X101946557Y-117063852D01*
X102037427Y-116972202D01*
X102141168Y-116894510D01*
X102256525Y-116832030D01*
X102382243Y-116786018D01*
X102390023Y-116783827D01*
X102439977Y-116774148D01*
X102503730Y-116767879D01*
X102575377Y-116765023D01*
X102649009Y-116765580D01*
G37*
G36*
X105100000Y-116600000D02*
G01*
X105100000Y-119100000D01*
X102600000Y-119100000D01*
X100100000Y-119100000D01*
X100100000Y-119050000D01*
X100150000Y-119050000D01*
X102600000Y-119050000D01*
X105050000Y-119050000D01*
X105050000Y-117175000D01*
X105050000Y-115300000D01*
X104602235Y-115300000D01*
X104154471Y-115300000D01*
X103932359Y-115417500D01*
X103710247Y-115535000D01*
X103710123Y-115582821D01*
X103701381Y-115645589D01*
X103677462Y-115699446D01*
X103641306Y-115743070D01*
X103595856Y-115775138D01*
X103544053Y-115794326D01*
X103488837Y-115799312D01*
X103433151Y-115788774D01*
X103379936Y-115761388D01*
X103356239Y-115741969D01*
X103318122Y-115693851D01*
X103296788Y-115639486D01*
X103292205Y-115589386D01*
X103385000Y-115589386D01*
X103393716Y-115638015D01*
X103418825Y-115676567D01*
X103455000Y-115700971D01*
X103493159Y-115707882D01*
X103535205Y-115700228D01*
X103573520Y-115679804D01*
X103584066Y-115670549D01*
X103603683Y-115647474D01*
X103612761Y-115624066D01*
X103614999Y-115590693D01*
X103615000Y-115590000D01*
X103612904Y-115556621D01*
X103604004Y-115533169D01*
X103584383Y-115509781D01*
X103582307Y-115507692D01*
X103558514Y-115487079D01*
X103535419Y-115477491D01*
X103503159Y-115475008D01*
X103500000Y-115475000D01*
X103466621Y-115477095D01*
X103443169Y-115485995D01*
X103419781Y-115505616D01*
X103417692Y-115507692D01*
X103396929Y-115531734D01*
X103387370Y-115555139D01*
X103385001Y-115587933D01*
X103385000Y-115589386D01*
X103292205Y-115589386D01*
X103291565Y-115582392D01*
X103301784Y-115526092D01*
X103326774Y-115474105D01*
X103365866Y-115429952D01*
X103418390Y-115397154D01*
X103422178Y-115395530D01*
X103477110Y-115382088D01*
X103535022Y-115384001D01*
X103589678Y-115400257D01*
X103634839Y-115429848D01*
X103634967Y-115429969D01*
X103641463Y-115435444D01*
X103648782Y-115438496D01*
X103659074Y-115438238D01*
X103674492Y-115433783D01*
X103697186Y-115424242D01*
X103729307Y-115408728D01*
X103773007Y-115386353D01*
X103830438Y-115356229D01*
X103890103Y-115324690D01*
X104125000Y-115200397D01*
X104587500Y-115200198D01*
X105050000Y-115200000D01*
X105050000Y-115025000D01*
X105050000Y-114850000D01*
X104432122Y-114850000D01*
X103814245Y-114850000D01*
X103590597Y-114968794D01*
X103366950Y-115087589D01*
X103365975Y-115151294D01*
X103357336Y-115217222D01*
X103333300Y-115270659D01*
X103293357Y-115312465D01*
X103258181Y-115334033D01*
X103200263Y-115355199D01*
X103145487Y-115357913D01*
X103089320Y-115342190D01*
X103073094Y-115334668D01*
X103022962Y-115300166D01*
X102987995Y-115256461D01*
X102967619Y-115206696D01*
X102961260Y-115154010D01*
X102961797Y-115150031D01*
X103050000Y-115150031D01*
X103057974Y-115187131D01*
X103078358Y-115224055D01*
X103105840Y-115251353D01*
X103107556Y-115252452D01*
X103146303Y-115267829D01*
X103186744Y-115265162D01*
X103213928Y-115254838D01*
X103245610Y-115231516D01*
X103269318Y-115198726D01*
X103279865Y-115163920D01*
X103280000Y-115159968D01*
X103271628Y-115120593D01*
X103249577Y-115084336D01*
X103218442Y-115056207D01*
X103182817Y-115041216D01*
X103169968Y-115040000D01*
X103130593Y-115048371D01*
X103094336Y-115070422D01*
X103066207Y-115101557D01*
X103051216Y-115137182D01*
X103050000Y-115150031D01*
X102961797Y-115150031D01*
X102968346Y-115101545D01*
X102988304Y-115052441D01*
X103020560Y-115009839D01*
X103064541Y-114976879D01*
X103119674Y-114956703D01*
X103142732Y-114953112D01*
X103179255Y-114951394D01*
X103210281Y-114956280D01*
X103245912Y-114969627D01*
X103255184Y-114973798D01*
X103312742Y-115000149D01*
X103549858Y-114875074D01*
X103786974Y-114750000D01*
X104418487Y-114750000D01*
X105050000Y-114750000D01*
X105050000Y-114450000D01*
X105050000Y-114150000D01*
X102600000Y-114150000D01*
X100150000Y-114150000D01*
X100150000Y-116600000D01*
X100150000Y-119050000D01*
X100100000Y-119050000D01*
X100100000Y-116600000D01*
X100100000Y-114100000D01*
X102600000Y-114100000D01*
X105100000Y-114100000D01*
X105100000Y-116600000D01*
G37*
G36*
X104738442Y-115875199D02*
G01*
X104745216Y-115880179D01*
X104767184Y-115906359D01*
X104783569Y-115945109D01*
X104795318Y-115999183D01*
X104800616Y-116040881D01*
X104804442Y-116110441D01*
X104802779Y-116184458D01*
X104796171Y-116256758D01*
X104785166Y-116321166D01*
X104771708Y-116367925D01*
X104753181Y-116416685D01*
X104776590Y-116443900D01*
X104792695Y-116469876D01*
X104799965Y-116495929D01*
X104800000Y-116497400D01*
X104791741Y-116537420D01*
X104768538Y-116583325D01*
X104732747Y-116630967D01*
X104710939Y-116654074D01*
X104661359Y-116702909D01*
X104693179Y-116724277D01*
X104720023Y-116751337D01*
X104728802Y-116782775D01*
X104720519Y-116816930D01*
X104696175Y-116852138D01*
X104656772Y-116886735D01*
X104603310Y-116919059D01*
X104565404Y-116936463D01*
X104539104Y-116948578D01*
X104527303Y-116959672D01*
X104525617Y-116975316D01*
X104526980Y-116985266D01*
X104523023Y-117020269D01*
X104500454Y-117053131D01*
X104460629Y-117082859D01*
X104404904Y-117108460D01*
X104334634Y-117128942D01*
X104329059Y-117130190D01*
X104296224Y-117138647D01*
X104277265Y-117148296D01*
X104266247Y-117163080D01*
X104261275Y-117175237D01*
X104238957Y-117208410D01*
X104214457Y-117224587D01*
X104163771Y-117242588D01*
X104097687Y-117256872D01*
X104020535Y-117266994D01*
X103936647Y-117272512D01*
X103850353Y-117272983D01*
X103778847Y-117269127D01*
X103697822Y-117256948D01*
X103632143Y-117234343D01*
X103579128Y-117199541D01*
X103536092Y-117150773D01*
X103500354Y-117086268D01*
X103499782Y-117085000D01*
X103478380Y-117032325D01*
X103467198Y-116989536D01*
X103466519Y-116976279D01*
X103542082Y-116976279D01*
X103557272Y-117035441D01*
X103570281Y-117065589D01*
X103600957Y-117117839D01*
X103637255Y-117154082D01*
X103683745Y-117178283D01*
X103709387Y-117186350D01*
X103741743Y-117191858D01*
X103788972Y-117195829D01*
X103846007Y-117198227D01*
X103907776Y-117199015D01*
X103969212Y-117198156D01*
X104025245Y-117195615D01*
X104070805Y-117191354D01*
X104085461Y-117189068D01*
X104137311Y-117177284D01*
X104172005Y-117163472D01*
X104192385Y-117145907D01*
X104201293Y-117122863D01*
X104201860Y-117118386D01*
X104204108Y-117103380D01*
X104209827Y-117092906D01*
X104222819Y-117084783D01*
X104246887Y-117076826D01*
X104285832Y-117066855D01*
X104295931Y-117064380D01*
X104360681Y-117046634D01*
X104410119Y-117028998D01*
X104442562Y-117012146D01*
X104454571Y-117000693D01*
X104450270Y-116990422D01*
X104433083Y-116973706D01*
X104414088Y-116959373D01*
X104367766Y-116927502D01*
X104451383Y-116900433D01*
X104526741Y-116873518D01*
X104584324Y-116847084D01*
X104626301Y-116820076D01*
X104638481Y-116809567D01*
X104652520Y-116790551D01*
X104647664Y-116777777D01*
X104623847Y-116771177D01*
X104602756Y-116770153D01*
X104577611Y-116765986D01*
X104560850Y-116750081D01*
X104554247Y-116738543D01*
X104544777Y-116718144D01*
X104545445Y-116705095D01*
X104558571Y-116691772D01*
X104571490Y-116681904D01*
X104600912Y-116657448D01*
X104633941Y-116626381D01*
X104666765Y-116592753D01*
X104695573Y-116560613D01*
X104716551Y-116534009D01*
X104725550Y-116518264D01*
X104725400Y-116494892D01*
X104717817Y-116485761D01*
X104702971Y-116469523D01*
X104687801Y-116445571D01*
X104687779Y-116445529D01*
X104678686Y-116424536D01*
X104679009Y-116407208D01*
X104689235Y-116383733D01*
X104691017Y-116380293D01*
X104708168Y-116337697D01*
X104720094Y-116284409D01*
X104727212Y-116217613D01*
X104729942Y-116134498D01*
X104730000Y-116118387D01*
X104730000Y-115999504D01*
X104627500Y-116103115D01*
X104536588Y-116189353D01*
X104449981Y-116259179D01*
X104364477Y-116314719D01*
X104276873Y-116358099D01*
X104201123Y-116386120D01*
X104108973Y-116420305D01*
X104016212Y-116463328D01*
X103925338Y-116513359D01*
X103838850Y-116568571D01*
X103759247Y-116627136D01*
X103689027Y-116687225D01*
X103630689Y-116747010D01*
X103586732Y-116804663D01*
X103561074Y-116854423D01*
X103543443Y-116918108D01*
X103542082Y-116976279D01*
X103466519Y-116976279D01*
X103465173Y-116950003D01*
X103471231Y-116907151D01*
X103488554Y-116844034D01*
X103514063Y-116787364D01*
X103550470Y-116732729D01*
X103600486Y-116675720D01*
X103633961Y-116642536D01*
X103756071Y-116538182D01*
X103887952Y-116449754D01*
X104031742Y-116375963D01*
X104157870Y-116326222D01*
X104216049Y-116305421D01*
X104260814Y-116287683D01*
X104297889Y-116270258D01*
X104332996Y-116250397D01*
X104371860Y-116225350D01*
X104381852Y-116218621D01*
X104485692Y-116138956D01*
X104585280Y-116044541D01*
X104675356Y-115940603D01*
X104713385Y-115889270D01*
X104726664Y-115874331D01*
X104738442Y-115875199D01*
G37*
G36*
X100480138Y-115877719D02*
G01*
X100488871Y-115889895D01*
X100525476Y-115940476D01*
X100571957Y-115997035D01*
X100622574Y-116053051D01*
X100671587Y-116102004D01*
X100690964Y-116119452D01*
X100768950Y-116183292D01*
X100840088Y-116233521D01*
X100908997Y-116272911D01*
X100980299Y-116304235D01*
X101025000Y-116319939D01*
X101162512Y-116373354D01*
X101297329Y-116442647D01*
X101424463Y-116524842D01*
X101538926Y-116616963D01*
X101567684Y-116643801D01*
X101627642Y-116706290D01*
X101672028Y-116764033D01*
X101703261Y-116821020D01*
X101723760Y-116881240D01*
X101730448Y-116912197D01*
X101735243Y-116944672D01*
X101735124Y-116971349D01*
X101729195Y-117000247D01*
X101716561Y-117039385D01*
X101716091Y-117040738D01*
X101687479Y-117110576D01*
X101654120Y-117165345D01*
X101613399Y-117206797D01*
X101562698Y-117236685D01*
X101499402Y-117256763D01*
X101420894Y-117268783D01*
X101370000Y-117272610D01*
X101323816Y-117273702D01*
X101268037Y-117272919D01*
X101212962Y-117270448D01*
X101200000Y-117269549D01*
X101111477Y-117259870D01*
X101041718Y-117245517D01*
X100989975Y-117226221D01*
X100955503Y-117201711D01*
X100938724Y-117175237D01*
X100929573Y-117155792D01*
X100915843Y-117143716D01*
X100891601Y-117135068D01*
X100870940Y-117130190D01*
X100799174Y-117110025D01*
X100742364Y-117084785D01*
X100701732Y-117055377D01*
X100678504Y-117022705D01*
X100673904Y-116987676D01*
X100674392Y-116984720D01*
X100676646Y-116964773D01*
X100670883Y-116952574D01*
X100652771Y-116942533D01*
X100636828Y-116936229D01*
X100577893Y-116908803D01*
X100530691Y-116877027D01*
X100496383Y-116842849D01*
X100476130Y-116808220D01*
X100471091Y-116775090D01*
X100482428Y-116745409D01*
X100509440Y-116722173D01*
X100538162Y-116705688D01*
X100482717Y-116645801D01*
X100438034Y-116592085D01*
X100410852Y-116545708D01*
X100400716Y-116505192D01*
X100407173Y-116469061D01*
X100421288Y-116445633D01*
X100433239Y-116428949D01*
X100437509Y-116414545D01*
X100434533Y-116395117D01*
X100425956Y-116367108D01*
X100411423Y-116307486D01*
X100401159Y-116235458D01*
X100395751Y-116158275D01*
X100395769Y-116117007D01*
X100470034Y-116117007D01*
X100472196Y-116203705D01*
X100479046Y-116273905D01*
X100491051Y-116330657D01*
X100508677Y-116377012D01*
X100510239Y-116380156D01*
X100521106Y-116404809D01*
X100522040Y-116422467D01*
X100513382Y-116443297D01*
X100512415Y-116445156D01*
X100497453Y-116469031D01*
X100483059Y-116485117D01*
X100482818Y-116485297D01*
X100474087Y-116498145D01*
X100477814Y-116519133D01*
X100479135Y-116522726D01*
X100492411Y-116544776D01*
X100517085Y-116575271D01*
X100549133Y-116609925D01*
X100584527Y-116644451D01*
X100619244Y-116674563D01*
X100628509Y-116681781D01*
X100649229Y-116698442D01*
X100656271Y-116710715D01*
X100651951Y-116726224D01*
X100645752Y-116738543D01*
X100629966Y-116761048D01*
X100609388Y-116769473D01*
X100597243Y-116770153D01*
X100563051Y-116773387D01*
X100547805Y-116782772D01*
X100551375Y-116798454D01*
X100561518Y-116810016D01*
X100585968Y-116827886D01*
X100623842Y-116849160D01*
X100669508Y-116871170D01*
X100717332Y-116891254D01*
X100761682Y-116906745D01*
X100772500Y-116909839D01*
X100799892Y-116918556D01*
X100817056Y-116926631D01*
X100820000Y-116929970D01*
X100812363Y-116939254D01*
X100792866Y-116954823D01*
X100778120Y-116965056D01*
X100736240Y-116992771D01*
X100759324Y-117011463D01*
X100782593Y-117024597D01*
X100819820Y-117039453D01*
X100865286Y-117054157D01*
X100913275Y-117066837D01*
X100952419Y-117074730D01*
X100978817Y-117081951D01*
X100991798Y-117095369D01*
X100995754Y-117107938D01*
X101003309Y-117138550D01*
X101011385Y-117155618D01*
X101023957Y-117165297D01*
X101036139Y-117170433D01*
X101072903Y-117180135D01*
X101124785Y-117188119D01*
X101186957Y-117194180D01*
X101254595Y-117198114D01*
X101322871Y-117199716D01*
X101386961Y-117198782D01*
X101442038Y-117195105D01*
X101480000Y-117189264D01*
X101537030Y-117169572D01*
X101581240Y-117137854D01*
X101616492Y-117090936D01*
X101629352Y-117066357D01*
X101653250Y-116999029D01*
X101658843Y-116934134D01*
X101645799Y-116870233D01*
X101613791Y-116805886D01*
X101562488Y-116739654D01*
X101551933Y-116728220D01*
X101457293Y-116639872D01*
X101347076Y-116557771D01*
X101225356Y-116484447D01*
X101096209Y-116422433D01*
X101001974Y-116386566D01*
X100875142Y-116333218D01*
X100754271Y-116261091D01*
X100639087Y-116169996D01*
X100540292Y-116071895D01*
X100470068Y-115995000D01*
X100470034Y-116117007D01*
X100395769Y-116117007D01*
X100395783Y-116083190D01*
X100399250Y-116036693D01*
X100409130Y-115973226D01*
X100422931Y-115926549D01*
X100441732Y-115893655D01*
X100455712Y-115879409D01*
X100469219Y-115871480D01*
X100480138Y-115877719D01*
G37*
D15*
%TO.C,R2*%
X114430000Y-100030000D02*
X118270000Y-100030000D01*
X114430000Y-101870000D02*
X118270000Y-101870000D01*
D16*
%TO.C,U2*%
X108817500Y-107815000D02*
X108817500Y-121785000D01*
X110722500Y-105910000D02*
X127867500Y-105910000D01*
X110722500Y-123690000D02*
X127867500Y-123690000D01*
X129772500Y-110305000D02*
X130682772Y-110308728D01*
D17*
X129772500Y-121785000D02*
X129772500Y-107815000D01*
D16*
X129772500Y-121785000D02*
X129772500Y-107815000D01*
X130682500Y-119304000D02*
X129772500Y-119304000D01*
X131182500Y-110808728D02*
X131182500Y-118804000D01*
X108817500Y-107815000D02*
G75*
G02*
X110722500Y-105910000I1905001J-1D01*
G01*
X110722500Y-123690000D02*
G75*
G02*
X108817500Y-121785000I0J1905000D01*
G01*
X127867500Y-105910000D02*
G75*
G02*
X129772500Y-107815000I-1J-1905001D01*
G01*
X129772500Y-121785000D02*
G75*
G02*
X127867500Y-123690000I-1905000J0D01*
G01*
X130682772Y-110308728D02*
G75*
G02*
X131182499Y-110808728I-291J-500018D01*
G01*
X131182500Y-118804000D02*
G75*
G02*
X130682500Y-119304000I-500000J0D01*
G01*
D15*
%TO.C,C2*%
X101368748Y-106970000D02*
X102791252Y-106970000D01*
X101368748Y-108790000D02*
X102791252Y-108790000D01*
%TD*%
M02*
