M48
; DRILL file {KiCad 9.0.1} date 2025-07-17T13:04:41-0400
; FORMAT={-:-/ absolute / inch / decimal}
; #@! TF.CreationDate,2025-07-17T13:04:41-04:00
; #@! TF.GenerationSoftware,Kicad,Pcbnew,9.0.1
; #@! TF.FileFunction,Plated,1,2,PTH
FMAT,2
INCH
; #@! TA.AperFunction,Plated,PTH,ViaDrill
T1C0.0118
; #@! TA.AperFunction,Plated,PTH,ComponentDrill
T2C0.0276
; #@! TA.AperFunction,Plated,PTH,ComponentDrill
T3C0.0350
; #@! TA.AperFunction,Plated,PTH,ComponentDrill
T4C0.0394
%
G90
G05
T1
X3.8957Y-4.8071
X3.9252Y-4.8583
X3.9439Y-4.7884
X4.2075Y-4.7185
X4.2075Y-4.7933
X4.2244Y-4.5315
X4.2756Y-4.7047
T2
X4.4807Y-3.9744
X4.6807Y-3.9744
X4.7894Y-3.8728
X4.7894Y-4.0728
T3
X4.3942Y-4.2197
X4.3942Y-4.8197
X4.4942Y-4.2197
X4.4942Y-4.8197
X4.5942Y-4.2197
X4.5942Y-4.8197
X4.6942Y-4.2197
X4.6942Y-4.8197
X4.7942Y-4.2197
X4.7942Y-4.8197
X4.8942Y-4.2197
X4.8942Y-4.8197
X4.9942Y-4.2197
X4.9942Y-4.8197
T4
X4.3425Y-3.0472
X4.4425Y-3.0472
X4.5425Y-3.0472
X4.6425Y-3.0472
M30
