%TF.GenerationSoftware,KiCad,Pcbnew,9.0.1*%
%TF.CreationDate,2025-07-17T13:04:37-04:00*%
%TF.ProjectId,hermes,6865726d-6573-42e6-9b69-6361645f7063,rev?*%
%TF.SameCoordinates,Original*%
%TF.FileFunction,Soldermask,Top*%
%TF.FilePolarity,Negative*%
%FSLAX46Y46*%
G04 Gerber Fmt 4.6, Leading zero omitted, Abs format (unit mm)*
G04 Created by KiCad (PCBNEW 9.0.1) date 2025-07-17 13:04:37*
%MOMM*%
%LPD*%
G01*
G04 APERTURE LIST*
G04 Aperture macros list*
%AMRoundRect*
0 Rectangle with rounded corners*
0 $1 Rounding radius*
0 $2 $3 $4 $5 $6 $7 $8 $9 X,Y pos of 4 corners*
0 Add a 4 corners polygon primitive as box body*
4,1,4,$2,$3,$4,$5,$6,$7,$8,$9,$2,$3,0*
0 Add four circle primitives for the rounded corners*
1,1,$1+$1,$2,$3*
1,1,$1+$1,$4,$5*
1,1,$1+$1,$6,$7*
1,1,$1+$1,$8,$9*
0 Add four rect primitives between the rounded corners*
20,1,$1+$1,$2,$3,$4,$5,0*
20,1,$1+$1,$4,$5,$6,$7,0*
20,1,$1+$1,$6,$7,$8,$9,0*
20,1,$1+$1,$8,$9,$2,$3,0*%
G04 Aperture macros list end*
%ADD10C,1.400000*%
%ADD11O,1.400000X1.400000*%
%ADD12RoundRect,0.250000X-0.325000X-0.650000X0.325000X-0.650000X0.325000X0.650000X-0.325000X0.650000X0*%
%ADD13RoundRect,0.053000X-0.159000X0.369000X-0.159000X-0.369000X0.159000X-0.369000X0.159000X0.369000X0*%
%ADD14RoundRect,0.053000X-0.369000X0.159000X-0.369000X-0.159000X0.369000X-0.159000X0.369000X0.159000X0*%
%ADD15RoundRect,0.102000X-0.850000X0.770000X-0.850000X-0.770000X0.850000X-0.770000X0.850000X0.770000X0*%
%ADD16O,1.600000X2.000000*%
%ADD17RoundRect,0.152400X0.609600X-1.063600X0.609600X1.063600X-0.609600X1.063600X-0.609600X-1.063600X0*%
%ADD18C,1.524000*%
%ADD19RoundRect,0.152400X-0.609600X1.063600X-0.609600X-1.063600X0.609600X-1.063600X0.609600X1.063600X0*%
G04 APERTURE END LIST*
D10*
%TO.C,R1*%
X121650000Y-98370000D03*
D11*
X121650000Y-103450000D03*
%TD*%
D12*
%TO.C,C1*%
X100605000Y-110690000D03*
X103555000Y-110690000D03*
%TD*%
D13*
%TO.C,U1*%
X103705000Y-120755000D03*
X103305000Y-120755000D03*
X102905000Y-120755000D03*
X102505000Y-120755000D03*
X102105000Y-120755000D03*
X101705000Y-120755000D03*
D14*
X101160000Y-121300000D03*
X101160000Y-121700000D03*
X101160000Y-122100000D03*
X101160000Y-122500000D03*
X101160000Y-122900000D03*
X101160000Y-123300000D03*
D13*
X101705000Y-123845000D03*
X102105000Y-123845000D03*
X102505000Y-123845000D03*
X102905000Y-123845000D03*
X103305000Y-123845000D03*
X103705000Y-123845000D03*
D14*
X104250000Y-123300000D03*
X104250000Y-122900000D03*
X104250000Y-122500000D03*
X104250000Y-122100000D03*
X104250000Y-121700000D03*
X104250000Y-121300000D03*
D15*
X102705000Y-122300000D03*
%TD*%
D12*
%TO.C,C3*%
X100575000Y-105050000D03*
X103525000Y-105050000D03*
%TD*%
D16*
%TO.C,DS1*%
X110300000Y-77400000D03*
X112840000Y-77400000D03*
X115380000Y-77400000D03*
X117920000Y-77400000D03*
%TD*%
D10*
%TO.C,R2*%
X113810000Y-100950000D03*
D11*
X118890000Y-100950000D03*
%TD*%
D17*
%TO.C,U2*%
X126851500Y-106345000D03*
D18*
X126851500Y-107180000D03*
D17*
X124311500Y-106345000D03*
D18*
X124311500Y-107180000D03*
D17*
X121771500Y-106345000D03*
D18*
X121771500Y-107180000D03*
D17*
X119231500Y-106345000D03*
D18*
X119231500Y-107180000D03*
D17*
X116691500Y-106345000D03*
D18*
X116691500Y-107180000D03*
D17*
X114151500Y-106345000D03*
D18*
X114151500Y-107180000D03*
D17*
X111611500Y-106345000D03*
D18*
X111611500Y-107180000D03*
X111611500Y-122420000D03*
D19*
X111611500Y-123255000D03*
D18*
X114151500Y-122420000D03*
D19*
X114151500Y-123255000D03*
D18*
X116691500Y-122420000D03*
D19*
X116691500Y-123255000D03*
D18*
X119231500Y-122420000D03*
D19*
X119231500Y-123255000D03*
D18*
X121771500Y-122420000D03*
D19*
X121771500Y-123255000D03*
D18*
X124311500Y-122420000D03*
D19*
X124311500Y-123255000D03*
D18*
X126851500Y-122420000D03*
D19*
X126851500Y-123255000D03*
%TD*%
D12*
%TO.C,C2*%
X100605000Y-107880000D03*
X103555000Y-107880000D03*
%TD*%
M02*
