%TF.GenerationSoftware,KiCad,Pcbnew,9.0.1*%
%TF.CreationDate,2025-07-17T13:04:37-04:00*%
%TF.ProjectId,hermes,6865726d-6573-42e6-9b69-6361645f7063,rev?*%
%TF.SameCoordinates,Original*%
%TF.FileFunction,Copper,L1,Top*%
%TF.FilePolarity,Positive*%
%FSLAX46Y46*%
G04 Gerber Fmt 4.6, Leading zero omitted, Abs format (unit mm)*
G04 Created by KiCad (PCBNEW 9.0.1) date 2025-07-17 13:04:37*
%MOMM*%
%LPD*%
G01*
G04 APERTURE LIST*
G04 Aperture macros list*
%AMRoundRect*
0 Rectangle with rounded corners*
0 $1 Rounding radius*
0 $2 $3 $4 $5 $6 $7 $8 $9 X,Y pos of 4 corners*
0 Add a 4 corners polygon primitive as box body*
4,1,4,$2,$3,$4,$5,$6,$7,$8,$9,$2,$3,0*
0 Add four circle primitives for the rounded corners*
1,1,$1+$1,$2,$3*
1,1,$1+$1,$4,$5*
1,1,$1+$1,$6,$7*
1,1,$1+$1,$8,$9*
0 Add four rect primitives between the rounded corners*
20,1,$1+$1,$2,$3,$4,$5,0*
20,1,$1+$1,$4,$5,$6,$7,0*
20,1,$1+$1,$6,$7,$8,$9,0*
20,1,$1+$1,$8,$9,$2,$3,0*%
G04 Aperture macros list end*
%TA.AperFunction,ComponentPad*%
%ADD10C,1.400000*%
%TD*%
%TA.AperFunction,ComponentPad*%
%ADD11O,1.400000X1.400000*%
%TD*%
%TA.AperFunction,SMDPad,CuDef*%
%ADD12RoundRect,0.250000X-0.325000X-0.650000X0.325000X-0.650000X0.325000X0.650000X-0.325000X0.650000X0*%
%TD*%
%TA.AperFunction,SMDPad,CuDef*%
%ADD13RoundRect,0.027500X-0.082500X0.292500X-0.082500X-0.292500X0.082500X-0.292500X0.082500X0.292500X0*%
%TD*%
%TA.AperFunction,SMDPad,CuDef*%
%ADD14RoundRect,0.027500X-0.292500X0.082500X-0.292500X-0.082500X0.292500X-0.082500X0.292500X0.082500X0*%
%TD*%
%TA.AperFunction,SMDPad,CuDef*%
%ADD15R,1.700000X1.540000*%
%TD*%
%TA.AperFunction,ComponentPad*%
%ADD16O,1.600000X2.000000*%
%TD*%
%TA.AperFunction,SMDPad,CuDef*%
%ADD17RoundRect,0.152400X0.609600X-1.063600X0.609600X1.063600X-0.609600X1.063600X-0.609600X-1.063600X0*%
%TD*%
%TA.AperFunction,ComponentPad*%
%ADD18C,1.524000*%
%TD*%
%TA.AperFunction,SMDPad,CuDef*%
%ADD19RoundRect,0.152400X-0.609600X1.063600X-0.609600X-1.063600X0.609600X-1.063600X0.609600X1.063600X0*%
%TD*%
%TA.AperFunction,ViaPad*%
%ADD20C,0.600000*%
%TD*%
%TA.AperFunction,Conductor*%
%ADD21C,0.200000*%
%TD*%
%TA.AperFunction,Conductor*%
%ADD22C,0.150000*%
%TD*%
G04 APERTURE END LIST*
D10*
%TO.P,R1,1*%
%TO.N,SDA*%
X121650000Y-98370000D03*
D11*
%TO.P,R1,2*%
%TO.N,Net-(U2-GPIO6{slash}SDA)*%
X121650000Y-103450000D03*
%TD*%
D12*
%TO.P,C1,1*%
%TO.N,Net-(U1-REGOUT)*%
X100605000Y-110690000D03*
%TO.P,C1,2*%
%TO.N,GND*%
X103555000Y-110690000D03*
%TD*%
D13*
%TO.P,U1,1*%
%TO.N,N/C*%
X103705000Y-120755000D03*
%TO.P,U1,2*%
X103305000Y-120755000D03*
%TO.P,U1,3*%
X102905000Y-120755000D03*
%TO.P,U1,4*%
X102505000Y-120755000D03*
%TO.P,U1,5*%
X102105000Y-120755000D03*
%TO.P,U1,6*%
X101705000Y-120755000D03*
D14*
%TO.P,U1,7,AUX_CL*%
%TO.N,unconnected-(U1-AUX_CL-Pad7)*%
X101160000Y-121300000D03*
%TO.P,U1,8,VDDIO*%
%TO.N,3V3*%
X101160000Y-121700000D03*
%TO.P,U1,9,AD0/SDO*%
%TO.N,unconnected-(U1-AD0{slash}SDO-Pad9)*%
X101160000Y-122100000D03*
%TO.P,U1,10,REGOUT*%
%TO.N,Net-(U1-REGOUT)*%
X101160000Y-122500000D03*
%TO.P,U1,11,FSYNC*%
%TO.N,unconnected-(U1-FSYNC-Pad11)*%
X101160000Y-122900000D03*
%TO.P,U1,12,INT*%
%TO.N,ACCELINT*%
X101160000Y-123300000D03*
D13*
%TO.P,U1,13,VDD*%
%TO.N,3V3*%
X101705000Y-123845000D03*
%TO.P,U1,14*%
%TO.N,N/C*%
X102105000Y-123845000D03*
%TO.P,U1,15*%
X102505000Y-123845000D03*
%TO.P,U1,16*%
X102905000Y-123845000D03*
%TO.P,U1,17*%
X103305000Y-123845000D03*
%TO.P,U1,18,GND*%
%TO.N,GND*%
X103705000Y-123845000D03*
D14*
%TO.P,U1,19,RESV_1*%
%TO.N,unconnected-(U1-RESV_1-Pad19)*%
X104250000Y-123300000D03*
%TO.P,U1,20,RESV_2*%
%TO.N,GND*%
X104250000Y-122900000D03*
%TO.P,U1,21,AUX_DA*%
%TO.N,unconnected-(U1-AUX_DA-Pad21)*%
X104250000Y-122500000D03*
%TO.P,U1,22,NCS*%
%TO.N,unconnected-(U1-NCS-Pad22)*%
X104250000Y-122100000D03*
%TO.P,U1,23,SCL/SCLK*%
%TO.N,SCL*%
X104250000Y-121700000D03*
%TO.P,U1,24,SDA/SDI*%
%TO.N,SDA*%
X104250000Y-121300000D03*
D15*
%TO.P,U1,25,EXP*%
%TO.N,unconnected-(U1-EXP-Pad25)*%
X102705000Y-122300000D03*
%TD*%
D12*
%TO.P,C3,1*%
%TO.N,3V3*%
X100575000Y-105050000D03*
%TO.P,C3,2*%
%TO.N,GND*%
X103525000Y-105050000D03*
%TD*%
D16*
%TO.P,DS1,1,VDD*%
%TO.N,3V3*%
X110300000Y-77400000D03*
%TO.P,DS1,2,GND*%
%TO.N,GND*%
X112840000Y-77400000D03*
%TO.P,DS1,3,SCK*%
%TO.N,SCL*%
X115380000Y-77400000D03*
%TO.P,DS1,4,SDA*%
%TO.N,SDA*%
X117920000Y-77400000D03*
%TD*%
D10*
%TO.P,R2,1*%
%TO.N,SCL*%
X113810000Y-100950000D03*
D11*
%TO.P,R2,2*%
%TO.N,Net-(U2-GPIO7{slash}SCL)*%
X118890000Y-100950000D03*
%TD*%
D17*
%TO.P,U2,1,GPIO26/ADC0/A0*%
%TO.N,unconnected-(U2-GPIO26{slash}ADC0{slash}A0-Pad1)*%
X126851500Y-106345000D03*
D18*
X126851500Y-107180000D03*
D17*
%TO.P,U2,2,GPIO27/ADC1/A1*%
%TO.N,unconnected-(U2-GPIO27{slash}ADC1{slash}A1-Pad2)*%
X124311500Y-106345000D03*
D18*
X124311500Y-107180000D03*
D17*
%TO.P,U2,3,GPIO28/ADC2/A2*%
%TO.N,unconnected-(U2-GPIO28{slash}ADC2{slash}A2-Pad3)*%
X121771500Y-106345000D03*
D18*
X121771500Y-107180000D03*
D17*
%TO.P,U2,4,GPIO29/ADC3/A3*%
%TO.N,unconnected-(U2-GPIO29{slash}ADC3{slash}A3-Pad4)*%
X119231500Y-106345000D03*
D18*
X119231500Y-107180000D03*
D17*
%TO.P,U2,5,GPIO6/SDA*%
%TO.N,Net-(U2-GPIO6{slash}SDA)*%
X116691500Y-106345000D03*
D18*
X116691500Y-107180000D03*
D17*
%TO.P,U2,6,GPIO7/SCL*%
%TO.N,Net-(U2-GPIO7{slash}SCL)*%
X114151500Y-106345000D03*
D18*
X114151500Y-107180000D03*
D17*
%TO.P,U2,7,GPIO0/TX*%
%TO.N,ACCELINT*%
X111611500Y-106345000D03*
D18*
X111611500Y-107180000D03*
%TO.P,U2,8,GPIO1/RX*%
%TO.N,unconnected-(U2-GPIO1{slash}RX-Pad8)*%
X111611500Y-122420000D03*
D19*
X111611500Y-123255000D03*
D18*
%TO.P,U2,9,GPIO2/SCK*%
%TO.N,unconnected-(U2-GPIO2{slash}SCK-Pad9)*%
X114151500Y-122420000D03*
D19*
X114151500Y-123255000D03*
D18*
%TO.P,U2,10,GPIO4/MISO*%
%TO.N,unconnected-(U2-GPIO4{slash}MISO-Pad10)*%
X116691500Y-122420000D03*
D19*
X116691500Y-123255000D03*
D18*
%TO.P,U2,11,GPIO3/MOSI*%
%TO.N,unconnected-(U2-GPIO3{slash}MOSI-Pad11)*%
X119231500Y-122420000D03*
D19*
X119231500Y-123255000D03*
D18*
%TO.P,U2,12,3V3*%
%TO.N,3V3*%
X121771500Y-122420000D03*
D19*
X121771500Y-123255000D03*
D18*
%TO.P,U2,13,GND*%
%TO.N,GND*%
X124311500Y-122420000D03*
D19*
X124311500Y-123255000D03*
D18*
%TO.P,U2,14,VBUS*%
%TO.N,unconnected-(U2-VBUS-Pad14)*%
X126851500Y-122420000D03*
D19*
X126851500Y-123255000D03*
%TD*%
D12*
%TO.P,C2,1*%
%TO.N,3V3*%
X100605000Y-107880000D03*
%TO.P,C2,2*%
%TO.N,GND*%
X103555000Y-107880000D03*
%TD*%
D20*
%TO.N,3V3*%
X98950735Y-122099265D03*
X100174265Y-121625735D03*
%TO.N,SDA*%
X106870000Y-119850000D03*
%TO.N,SCL*%
X106870000Y-121750000D03*
X108600000Y-119500000D03*
%TO.N,ACCELINT*%
X99700000Y-123400000D03*
X107300000Y-115100000D03*
%TD*%
D21*
%TO.N,Net-(U1-REGOUT)*%
X99000000Y-112295000D02*
X99000000Y-121300000D01*
X101005000Y-110200000D02*
X101000000Y-110200000D01*
D22*
X101160000Y-122500000D02*
X100600000Y-122500000D01*
D21*
X100605000Y-110690000D02*
X99000000Y-112295000D01*
X99000000Y-121300000D02*
X100200000Y-122500000D01*
X100200000Y-122500000D02*
X100600000Y-122500000D01*
X101000000Y-110200000D02*
X100200000Y-111000000D01*
X100600000Y-122500000D02*
X100719666Y-122500000D01*
D22*
%TO.N,GND*%
X104250000Y-122900000D02*
X104690334Y-122900000D01*
D21*
X107470000Y-122950000D02*
X107470000Y-120800000D01*
X104740334Y-122950000D02*
X104690334Y-122900000D01*
X103716000Y-123856000D02*
X103716000Y-123845000D01*
X105875000Y-115335000D02*
X105875000Y-109400000D01*
X107470000Y-122950000D02*
X104740334Y-122950000D01*
X106575000Y-123845000D02*
X103716000Y-123845000D01*
X105015000Y-109400000D02*
X105875000Y-109400000D01*
X124311500Y-123255000D02*
X121856500Y-120800000D01*
X103955000Y-107390000D02*
X104745000Y-106600000D01*
X103845000Y-104560000D02*
X107915000Y-104560000D01*
X107470000Y-120800000D02*
X107470000Y-116930000D01*
X112840000Y-77400000D02*
X112840000Y-99635000D01*
X107470000Y-116930000D02*
X105875000Y-115335000D01*
X104745000Y-106600000D02*
X105875000Y-106600000D01*
X112840000Y-99635000D02*
X107937500Y-104537500D01*
X107937500Y-104537500D02*
X105875000Y-106600000D01*
X103955000Y-110460000D02*
X105015000Y-109400000D01*
X105875000Y-109400000D02*
X105875000Y-106600000D01*
X107915000Y-104560000D02*
X107937500Y-104537500D01*
X107470000Y-122950000D02*
X106575000Y-123845000D01*
X121856500Y-120800000D02*
X107470000Y-120800000D01*
%TO.N,3V3*%
X103200000Y-77400000D02*
X110300000Y-77400000D01*
X100895000Y-104560000D02*
X99000000Y-106455000D01*
X98197855Y-120400000D02*
X98198641Y-121700000D01*
X99000000Y-102665000D02*
X99000000Y-81600000D01*
X98198641Y-121700000D02*
X98200656Y-125030656D01*
X101005000Y-107390000D02*
X99795000Y-108600000D01*
X99000000Y-106455000D02*
X99000000Y-108600000D01*
X98551470Y-121700000D02*
X98950735Y-122099265D01*
X100895000Y-104560000D02*
X99000000Y-102665000D01*
X99795000Y-108600000D02*
X99000000Y-108600000D01*
X100174265Y-121625735D02*
X100313697Y-121765167D01*
X98198641Y-121700000D02*
X98551470Y-121700000D01*
X99000000Y-81600000D02*
X103200000Y-77400000D01*
X119126500Y-125900000D02*
X101200000Y-125900000D01*
X98200656Y-125030656D02*
X99070000Y-125900000D01*
D22*
X101160000Y-121700000D02*
X100719666Y-121700000D01*
D21*
X100313697Y-121765167D02*
X100654499Y-121765167D01*
X121771500Y-123255000D02*
X119126500Y-125900000D01*
X101200000Y-125250000D02*
X101694000Y-124756000D01*
X101694000Y-124756000D02*
X101694000Y-123845000D01*
X99000000Y-110800000D02*
X98195197Y-111604803D01*
X121771500Y-122420000D02*
X121771500Y-124428500D01*
X101200000Y-125900000D02*
X101200000Y-125250000D01*
X99070000Y-125900000D02*
X101200000Y-125900000D01*
X98197825Y-120350000D02*
X98197855Y-120400000D01*
D22*
X100719666Y-121700000D02*
X100654499Y-121765167D01*
D21*
X100654499Y-121765167D02*
X100659833Y-121759833D01*
X99000000Y-108600000D02*
X99000000Y-110800000D01*
X98195197Y-111604803D02*
X98195197Y-116004803D01*
X98195197Y-116004803D02*
X98197825Y-120350000D01*
%TO.N,SDA*%
X121650000Y-98370000D02*
X121650000Y-81130000D01*
X106870000Y-119850000D02*
X105431000Y-121289000D01*
X121650000Y-81130000D02*
X117920000Y-77400000D01*
X105431000Y-121289000D02*
X104250000Y-121289000D01*
D22*
%TO.N,SCL*%
X104800000Y-121700000D02*
X104850000Y-121750000D01*
D21*
X115380000Y-77400000D02*
X115380000Y-99380000D01*
X106870000Y-121750000D02*
X104850000Y-121750000D01*
D22*
X104250000Y-121700000D02*
X104800000Y-121700000D01*
D21*
X113088500Y-115011500D02*
X108600000Y-119500000D01*
X113088500Y-101671500D02*
X113088500Y-115011500D01*
X113810000Y-100950000D02*
X113088500Y-101671500D01*
X115380000Y-99380000D02*
X113810000Y-100950000D01*
%TO.N,ACCELINT*%
X99789000Y-123311000D02*
X100964000Y-123311000D01*
X111611500Y-110788500D02*
X107300000Y-115100000D01*
X99700000Y-123400000D02*
X99789000Y-123311000D01*
X111611500Y-107180000D02*
X111611500Y-110788500D01*
%TO.N,Net-(U2-GPIO7{slash}SCL)*%
X114151500Y-105688500D02*
X114151500Y-106345000D01*
X118890000Y-100950000D02*
X114151500Y-105688500D01*
%TO.N,Net-(U2-GPIO6{slash}SDA)*%
X121650000Y-103450000D02*
X119586500Y-103450000D01*
X119586500Y-103450000D02*
X116691500Y-106345000D01*
%TD*%
M02*
